<svg width="375" height="703" viewBox="0 0 375 703" fill="none" xmlns="http://www.w3.org/2000/svg">
<path d="M375 0H0V703H375V0Z" fill="url(#paint0_linear_936_7677)"/>
<g style="mix-blend-mode:color-burn" opacity="0.3">
<path d="M174.281 9L175.271 25.2343L174.685 9H174.281ZM121.039 9H119.281L133.109 71.3751L121.039 9ZM140.674 9H137.237L158.721 138.693L140.674 9ZM149.711 9H147.51L159.151 93.8447L149.711 9ZM236.951 9L217.224 167.715L241.169 9H236.951ZM179.255 9L186.938 197.667L183.956 9H179.255ZM229.958 9L227.888 29.9958L230.492 9H229.958ZM203.513 9L201.521 90.0582L205.531 9H203.513ZM1 532.76V540.016L74.8021 465.193L1 532.76ZM1 422.249V429.414L91.7943 391.277L1 422.249ZM1 330.603V331.85L17.4974 333.074L1 330.603ZM94.2031 9H91.2214L120.362 104.977L94.2031 9ZM1 319.107V323.936L64.3984 331.827L1 319.107ZM1 393.408V395.676L30.9479 388.103L1 393.408ZM84.112 39.8588L131.208 172.885L97.0677 66.3189L78.9036 9H75.8828L86 37.9315L84.112 39.8588ZM254.646 9L243.188 75.7284L256.469 9H254.646ZM1 461.633V467.528L71.4427 423.338L1 461.633ZM376 488.229V485.781L348.24 466.803L376 488.229ZM376 478.298V472.698L311.104 432.362L376 478.298ZM370.792 9L261.677 221.792L376 17.2305V9H370.792ZM355.414 171.071L290.232 245.713L344.008 189.777L303.266 235.124L376 161.707V154.111L356.964 175.288L355.414 171.071ZM376 243.082V241.79L360.792 251.608L376 243.082ZM283.318 9L272.484 51.6037L284.607 9H283.318ZM18.8385 248.524L28.7995 254.124L1 236.122V244.919L90.2188 292.738L18.8385 248.524ZM376 335.613V331.079L315.909 339.604L376 335.613ZM376 349.376V344.207L307.237 349.104L376 349.376ZM376 412.001V410.005L350.154 402.931L376 412.001ZM376 261.403V254.918L296.82 298.791L376 261.403ZM301.208 9H297.797L266.247 114.659L301.208 9ZM362.576 9H357.771L304.685 122.005L362.576 9ZM323.005 9H319.411L282.953 110.215L323.005 9ZM237.693 198.37L288.604 37.3874L284.568 33.7142L237.693 198.37ZM376 125.021V120.101L332.628 176.785L376 125.021ZM376 195.06V191.591L339.086 225.374L376 195.06ZM376 60.4011V52.9188L322.289 143.024L376 60.4011ZM376 287.613V286.23L358.552 293.032L376 287.613ZM1 431.908V435.513L46.1953 414.631L1 431.908ZM247.094 662H248.109L240.87 624.906L247.094 662ZM226.495 662H227.172L223.812 635.359L226.495 662ZM213.331 662H216.924L204.385 519.723L213.331 662ZM287.458 662H293.76L228.37 468.39L287.458 662ZM300.609 662H304.385L262.875 552.033L300.609 662ZM170.401 662L171.924 634.973L169.685 662H170.401ZM156.768 662L172.875 509.18L152.784 662H156.768ZM190.375 150.347L191.365 9H187.849L190.375 150.347ZM205.193 662H205.583L204.685 646.128L205.193 662ZM376 572.734V565.569L310.401 492.084L376 572.734ZM376 394.723V393.544L360.505 390.71L376 394.723ZM336.586 662H339.19L308.292 599.716L336.586 662ZM376 341.486V338.81L340.271 342.574L376 341.486ZM376 527.409V523.691L336.065 488.161L376 527.409ZM376 447.598V445.762L353.253 435.264L376 447.598ZM359.542 662H366.885L278.526 509.633L359.542 662ZM374.372 621.936L375.961 624.362V609.624L258.539 448.641L374.372 621.936ZM129.685 662L143.643 588.356L127.628 662H129.685ZM92.2109 662L104.229 623.001L90.9349 662H92.2109ZM1 100.148V107.993L67.7057 191.409L1 100.148ZM1 178.508V181.501L32.4323 208.528L1 178.508ZM1 375.768V377.469L23.7214 373.841L1 375.768ZM7.79688 9H2.04167L71.5469 131.71L7.79688 9ZM1 289.178V291.785L34.4766 301.49L1 289.178ZM46.7292 9H41.2734L104.594 149.985L46.7292 9ZM1 36.6618V48.4748L84.6589 179.052L1 36.6618ZM29.9453 108.424L108.669 225.011L32.901 102.574L29.9453 108.424ZM67.4062 662L78.5911 632.978L66.3516 662H67.4062ZM120.792 662L127.302 631.572L119.984 662H120.792ZM37.1979 662H41.8854L93.2266 552.985L37.1979 662ZM82.1328 662H87.0547L135.115 516.435L82.1328 662ZM1 148.284V156.628L82.0026 238.003L1 148.284ZM1 501.017V505.235L47.4453 466.485L1 501.017ZM16.6901 662H20.7656L65.8177 577.858L16.6901 662ZM15.974 569.152L104.802 457.076L18.2266 556.681L1 576.316V583.685L14.8672 566.34L15.974 569.152ZM1 623.273V631.572L66.3776 533.123L1 623.273Z" fill="#C3C3C3"/>
</g>
<g style="mix-blend-mode:color-burn" opacity="0.5">
<path d="M0 166.153V168.979L33.0729 189.301L0 166.153ZM0 73.5819V77.2606L33.9583 114.854L0 73.5819ZM0 118.308V118.465L1.6276 119.879L0 118.308ZM0 22.0814V34.4631L99.2318 169.046L0 22.0814ZM0 482.962V489.13L59.349 421.839L0 482.962ZM0 578.718V581.41L18.9714 550.007L0 578.718ZM17.1354 -13H11.9922L74.1276 93.0068L17.1354 -13ZM0 514.724V515.397L5.95052 507.68L0 514.724ZM0 306.658V308.677L27.0182 304.863L0 306.658ZM0 379.535V383.662L51.0677 355.669L0 379.535ZM0 292.953V295.779L37.9297 293.132L0 292.953ZM0 478.005V482.379L42.9688 435.14L0 478.005ZM332.161 -13L307.422 38.994L334.427 -13H332.161ZM375 586.636V575.062L288.06 447.679L375 586.636ZM353.385 -13L342.031 7.995L354.414 -13H353.385ZM75.3646 -13H73.5026L93.75 40.1828L75.3646 -13ZM81.7969 633L125.534 480.876L76.9401 633H81.7969ZM0 620.417V633H1.39323L95.3255 451.694L0 620.417ZM88.737 -13H83.5286L137.279 144.418L88.737 -13ZM375 65.0808V56.1085L292.969 158.504L375 65.0808ZM159.102 -13L167.422 80.4233L161.458 -13H159.102ZM287.214 -13L254.661 84.5281L290.547 -13H287.214ZM207.253 93.5676L221.354 -13H218.568L207.253 93.5676ZM243.997 -5.12687L245.742 -13H245.508L243.997 -5.12687ZM375 489.983V484.555L321.615 431.574L375 489.983ZM375 218.237V213.122L309.31 240.465L375 218.237ZM375 320.767V318.411L343.815 314.486L375 320.767ZM375 402.324V397.075L311.302 363.295L375 402.324ZM375 600.453V592.625L318.294 505.146L375 600.453ZM14.1406 633L41.1589 576.049L11.7188 633H14.1406ZM375 208.255V207.605L366.745 211.306L375 208.255ZM375 108.237V103.93L330.729 148.5L375 108.237ZM341.328 63.7574L375 17.8196V13.5802L341.328 63.7574ZM371.094 633H374.375L334.844 563.959L371.094 633ZM375 179.006V175.686L334.948 200.539L375 179.006ZM375 139.685V138.788L365.182 146.907L375 139.685ZM375 537.401V533.274L339.648 489.557L375 537.401ZM184.479 633H186.797L185.13 540.721L184.479 633ZM331.276 633H334.87L293.203 541.169L331.276 633ZM136.966 633L151.289 518.985L133.945 633H136.966ZM53.138 633L68.5286 590.718L51.6146 633H53.138ZM73.5807 633H75.1302L89.5703 585.178L73.5807 633ZM170.677 633L171.094 615.841L170.234 633H170.677ZM283.177 633H284.297L273.333 597.268L283.177 633ZM298.698 633H302.76L259.727 512.638L298.698 633ZM191.927 633H195.729L189.505 481.751L191.927 633ZM235.99 633H238.073L225.052 555.256L235.99 633ZM226.966 633H227.552L224.518 611.108L226.966 633Z" fill="#C3C3C3"/>
</g>
<path d="M310 369.115C316.263 367.279 317.461 366.12 319.531 360C320.117 365.924 321.068 366.901 327.005 367.695C320.742 369.518 319.544 370.677 317.474 376.81C316.888 370.911 315.885 369.948 310 369.115Z" fill="white"/>
<path d="M15 216.306C18.9062 215.16 19.6745 214.444 20.9635 210.59C21.3281 214.301 21.9271 214.913 25.638 215.408C21.7318 216.553 20.9766 217.27 19.6875 221.111C19.3099 217.413 18.724 216.801 15 216.306Z" fill="white"/>
<path d="M4 326.207C9.20833 324.684 10.224 323.72 11.9297 318.59C12.4245 323.525 13.2318 324.345 18.1797 324.996C12.9714 326.52 11.9427 327.483 10.237 332.613C9.72917 327.678 8.94792 326.858 4 326.207Z" fill="white"/>
<path d="M63.8018 297.317C69.5439 295.637 70.6507 294.583 72.5387 288.932C73.0856 294.374 73.945 295.26 79.4007 295.989C73.6585 297.669 72.5518 298.723 70.6637 304.374C70.0778 298.932 69.2054 298.046 63.8018 297.317Z" fill="white"/>
<path d="M347.34 59.6565C351.581 55.6949 352.408 49.6889 349.188 46.2416C345.968 42.7943 339.919 43.2111 335.679 47.1727C331.438 51.1342 330.611 57.1403 333.831 60.5876C337.051 64.0349 343.1 63.618 347.34 59.6565Z" fill="white"/>
<path d="M253.538 95.4632C255.577 93.5585 255.973 90.6683 254.421 89.0077C252.87 87.3471 249.96 87.545 247.921 89.4497C245.882 91.3544 245.487 94.2446 247.038 95.9052C248.589 97.5658 251.499 97.3679 253.538 95.4632Z" fill="white"/>
<path d="M117 41.1875C125.359 38.7526 126.961 37.2812 129.708 29C130.503 36.9167 131.753 38.2057 139.695 39.2734C131.336 41.7083 129.734 43.1797 126.987 51.4609C126.193 43.5443 124.93 42.2552 117 41.1875Z" fill="white"/>
<path d="M26 155.77C28.8776 154.936 29.4245 154.467 30.375 151.59C30.6484 154.311 31.0781 154.754 33.7995 155.118C30.9349 155.952 30.375 156.421 29.4375 159.298C29.2161 156.59 28.7344 156.134 26 155.77Z" fill="white"/>
<path d="M218 427.042C225.565 424.828 227.023 423.435 229.51 416C230.227 423.161 231.372 424.346 238.56 425.297C230.982 427.51 229.523 428.904 227.036 436.352C226.32 429.177 225.188 428.018 218 427.042Z" fill="white"/>
<path d="M275.338 272.342C285 269.517 286.849 267.746 290.026 258.254C290.937 267.368 292.396 268.892 301.562 270.116C291.901 272.941 290.052 274.712 286.875 284.204C285.963 275.064 284.505 273.566 275.338 272.342Z" fill="white"/>
<path d="M342 289.57C345.138 288.659 345.737 288.086 346.766 285C347.065 287.969 347.534 288.464 350.516 288.906C347.378 289.818 346.779 290.404 345.75 293.477C345.451 290.456 344.982 289.974 342 289.57Z" fill="white"/>
<path d="M41 71.7917C47.7188 69.8385 49.0078 68.6016 51.2083 62C51.8464 68.3542 52.862 69.3958 59.2292 70.2552C52.5104 72.2083 51.2214 73.4453 49.0208 80.0469C48.3828 73.6927 47.3672 72.651 41 71.7917Z" fill="white"/>
<path d="M30 377.664C37.3177 375.529 38.724 374.187 41.1198 367C41.8099 373.927 42.9167 375.06 49.8568 375.984C42.5391 378.12 41.1328 379.461 38.737 386.648C38.0469 379.734 36.9401 378.576 30 377.664Z" fill="white"/>
<defs>
<linearGradient id="paint0_linear_936_7677" x1="465.135" y1="100.428" x2="-81.782" y2="103.667" gradientUnits="userSpaceOnUse">
<stop stop-color="#ED2A3A"/>
<stop offset="1" stop-color="#F7983B"/>
</linearGradient>
</defs>
</svg>
