<svg width="227" height="209" viewBox="0 0 227 209" fill="none" xmlns="http://www.w3.org/2000/svg">
<path d="M167.403 203.16C166.596 202.469 164.793 200.276 166.184 197.722C166.692 196.788 167.774 196.326 168.748 195.915C169.756 195.575 170.707 195.084 171.566 194.457C173.09 193.158 173.516 191 174.526 189.268C175.694 187.278 177.862 185.785 180.157 185.892C182.787 186.009 184.975 188.157 185.971 190.604C186.966 193.051 186.986 195.767 187.022 198.408C187.022 199.87 186.966 201.52 185.894 202.505C184.904 203.414 183.417 203.424 182.076 203.383L167.718 202.942" fill="#F5F5F5"/>
<path d="M194.866 163.674H157.101L163.905 204.236C164.046 205.081 164.423 205.869 164.994 206.508C165.565 207.147 166.305 207.611 167.129 207.846L167.261 207.882C167.372 207.912 167.484 207.948 167.596 207.968C167.85 208.019 168.108 208.05 168.368 208.059V208.095H168.55H185.381C185.692 208.094 186.002 208.061 186.306 207.998C187.287 207.844 188.191 207.373 188.88 206.659C189.57 205.944 190.008 205.024 190.129 204.038L193.414 176.062L193.561 174.95L194.84 163.877L194.866 163.674ZM187.758 189.568H183.879L184.275 177.794H188.763L187.758 189.568ZM189.139 177.794H192.85L191.469 189.568H188.138L189.139 177.794ZM178.065 202.617L177.832 192.391H183.417L183.061 202.596L178.065 202.617ZM172.033 192.391H177.456L177.689 202.617H172.83L172.033 192.391ZM172.455 202.617H167.885C167.454 199.854 166.87 196.27 166.281 192.391H171.637L172.455 202.617ZM171.815 189.568L170.876 177.773H177.095L177.364 189.548L171.815 189.568ZM177.766 189.568L177.476 177.773H183.879L183.488 189.548L177.766 189.568ZM177.43 174.971L177.177 164.07H184.351L183.99 174.971H177.43ZM177.055 174.971H170.662L169.82 164.07H176.791L177.055 174.971ZM170.302 174.971H163.544L162.874 170.762C162.168 166.35 161.904 164.694 161.757 164.07H169.444L170.302 174.971ZM170.525 177.794L171.439 189.568H165.854C165.666 188.375 165.479 187.166 165.286 185.958C164.849 183.176 164.412 180.398 164.001 177.794H170.525ZM165.479 189.568H161.838L159.863 177.794H163.625C164.184 181.414 164.824 185.46 165.463 189.548L165.479 189.568ZM165.925 192.391C166.479 195.945 167.027 199.418 167.525 202.617H164.026L162.31 192.391H165.925ZM183.447 202.617L183.787 192.391H187.514L186.615 202.596L183.447 202.617ZM184.366 174.971L184.727 164.07H189.936L189.002 174.971H184.366ZM161.417 164.07C161.569 164.857 162.255 169.147 163.179 174.971H159.391L157.558 164.07H161.417ZM189.936 202.617H187.016L187.89 192.391H191.134L189.936 202.617ZM193.18 174.971H189.377L190.312 164.07H194.46L193.18 174.971Z" fill="#E0E0E0"/>
<path d="M46.0966 77.7458C46.0966 77.7458 46.0103 77.5884 45.863 77.294L45.208 75.984L42.7405 70.9981C40.6182 66.6977 37.5871 60.544 33.906 53.0754L34.0533 53.1261L0.238632 69.6933L0.299559 69.5156L12.3784 94.2368L12.2159 94.181L36.6275 82.3052L43.5884 78.9339L45.467 78.0708L45.9443 77.8474L46.1169 77.7712L45.9646 77.8525L45.467 78.0708L43.6442 78.9796L36.7392 82.3915L12.3225 94.3993L12.2159 94.4551L12.1601 94.3434L0.0609267 69.6374L0 69.5156L0.121854 69.4597L33.9568 52.9383L34.0533 52.8926L34.099 52.989L42.8623 71.0184L45.269 76.0043L45.8935 77.3092L46.0966 77.7458Z" fill="#E0E0E0"/>
<path d="M34.0029 53.0293C33.9995 53.0746 33.9893 53.1191 33.9725 53.1613C33.942 53.2629 33.9014 53.3898 33.8506 53.5421C33.7338 53.8975 33.5714 54.3849 33.3429 54.9993C32.9012 56.2838 32.2716 58.1015 31.4947 60.3406L25.3309 77.9333L25.1583 78.0146H25.1278H25.0872L25.006 77.9892L24.8435 77.9333L24.5186 77.8267L23.8788 77.6135L22.6197 77.1667L20.1369 76.3391L15.4404 74.7702L7.49448 72.0995L2.14303 70.2768L0.696009 69.7691L0.320291 69.632C0.275247 69.6203 0.232383 69.6015 0.193359 69.5761C0.238655 69.5795 0.28317 69.5898 0.325369 69.6066L0.711241 69.7183L2.17857 70.1803L7.55541 71.9218L15.5115 74.5163L20.213 76.07L22.7009 76.8976L23.9702 77.319L24.615 77.5322L24.9349 77.6388L25.0974 77.6896L25.1786 77.7201H25.2192H25.2497C25.1786 77.7556 25.4223 77.6439 25.0923 77.8064C27.5345 70.9521 29.7431 64.7527 31.3475 60.239L33.2819 54.9637C33.5053 54.3545 33.6881 53.8721 33.7897 53.5269L33.9369 53.1512L34.0029 53.0293Z" fill="#E0E0E0"/>
<path d="M16.8461 75.1153C16.9171 75.1153 15.9525 79.4665 14.6882 84.7977C13.424 90.1288 12.3374 94.4445 12.2664 94.4191C12.1953 94.3937 13.165 90.0679 14.4293 84.7367C15.6935 79.4056 16.775 75.095 16.8461 75.1153Z" fill="#E0E0E0"/>
<path d="M46.452 77.9274C46.4215 77.9883 42.3597 75.998 37.3789 73.4797C32.3981 70.9614 28.3871 68.8645 28.4226 68.7985C28.4581 68.7325 32.52 70.7228 37.5008 73.2462C42.4816 75.7696 46.4825 77.8614 46.452 77.9274Z" fill="#E0E0E0"/>
<path d="M213.388 80.6489C213.388 80.6489 213.464 80.527 213.616 80.3087L214.297 79.3491L216.886 75.7239L226.264 62.6652V62.8175L200.167 43.9656L200.354 43.9351L187.382 61.8477L187.357 61.6802L206.102 75.3177L211.453 79.2272L212.88 80.2732L213.246 80.5473C213.327 80.6133 213.373 80.6438 213.373 80.6489L213.251 80.5676L212.885 80.3138L211.463 79.2983L206.097 75.4548L187.23 61.8731L187.123 61.8224L187.194 61.7208L200.146 43.798L200.227 43.6914L200.334 43.7676L226.406 62.6601L226.492 62.721L226.426 62.8073L216.932 75.8356C215.799 77.3588 214.901 78.5824 214.307 79.4151C214.012 79.8162 213.799 80.1259 213.621 80.3392C213.444 80.5524 213.388 80.6489 213.388 80.6489Z" fill="#E0E0E0"/>
<path d="M226.35 62.7324C226.205 62.7669 226.057 62.7923 225.908 62.8085L224.644 62.9862L219.988 63.5803L204.619 65.4538C204.33 65.2406 204.538 65.3878 204.472 65.337V65.2863V65.2152L204.447 65.0781L204.391 64.7988L204.279 64.2505C204.203 63.8849 204.132 63.5194 204.056 63.1589C203.914 62.4379 203.766 61.7271 203.629 61.0264C203.35 59.6302 203.076 58.2796 202.822 56.9951C202.314 54.4564 201.852 52.1209 201.466 50.1712C201.081 48.2215 200.791 46.673 200.578 45.561L200.349 44.307C200.319 44.1611 200.297 44.0136 200.283 43.8652C200.335 44.0053 200.374 44.1498 200.4 44.2968C200.466 44.6014 200.563 45.0178 200.679 45.5407L201.649 50.1103C202.05 52.06 202.528 54.365 203.061 56.9291C203.32 58.2136 203.599 59.5591 203.883 60.9553C204.025 61.656 204.168 62.3668 204.315 63.0878C204.391 63.4483 204.462 63.8088 204.538 64.1743L204.65 64.7278L204.706 65.0019L204.731 65.1441V65.2101V65.271C204.67 65.2253 204.878 65.3827 204.589 65.1746L219.968 63.3823L224.634 62.8746L225.903 62.7476C226.052 62.73 226.201 62.7249 226.35 62.7324Z" fill="#E0E0E0"/>
<path d="M203.152 58.1511C203.152 58.2222 199.598 59.1005 195.211 60.116C190.824 61.1314 187.224 61.893 187.204 61.8219C187.184 61.7509 190.758 60.8725 195.15 59.857C199.542 58.8416 203.136 58.08 203.152 58.1511Z" fill="#E0E0E0"/>
<path d="M213.403 80.9789C213.332 80.9789 213.078 77.2674 212.845 72.6826C212.611 68.0978 212.479 64.3762 212.555 64.3711C212.631 64.366 212.875 68.0826 213.109 72.6674C213.342 77.2521 213.474 80.9738 213.403 80.9789Z" fill="#E0E0E0"/>
<path d="M162.204 173.645L162.6 173.797L163.727 174.264L168.007 176.051L183.401 182.525L183.264 182.581L196.313 151.777L196.384 151.955L175.237 142.958L175.394 142.892L165.92 165.044C164.757 167.75 163.838 169.898 163.199 171.375C162.884 172.101 162.64 172.665 162.468 173.056L162.28 173.492L162.204 173.645C162.204 173.645 162.204 173.594 162.259 173.498C162.315 173.401 162.361 173.254 162.432 173.071L163.128 171.401L165.798 165.069C168.098 159.621 171.353 151.904 175.191 142.795L175.237 142.684L175.349 142.734L196.49 151.691L196.612 151.741L196.556 151.863C191.637 163.434 187.087 174.117 183.457 182.652L183.416 182.748L183.32 182.708L167.905 176.107L163.671 174.279L162.574 173.802L162.204 173.645Z" fill="#E0E0E0"/>
<path d="M183.361 182.627C183.34 182.594 183.322 182.558 183.31 182.521C183.275 182.434 183.234 182.328 183.178 182.201C183.066 181.896 182.909 181.48 182.711 180.957C182.305 179.855 181.731 178.296 181.03 176.387L175.577 161.247C175.72 160.917 175.623 161.156 175.654 161.079H175.689L175.755 161.049L175.887 160.988L176.156 160.866L176.689 160.628L177.74 160.15L179.802 159.221L183.696 157.469L190.296 154.514L194.754 152.544L195.973 152.037L196.293 151.91C196.369 151.879 196.404 151.869 196.404 151.874L196.303 151.935L195.998 152.088L194.8 152.656L190.373 154.687L183.772 157.693L179.883 159.46L177.852 160.389L176.796 160.866L176.288 161.11L176.024 161.227L175.887 161.288L175.821 161.318H175.791C175.816 161.247 175.714 161.486 175.852 161.161C177.948 167.071 179.847 172.422 181.228 176.321C181.899 178.251 182.447 179.82 182.833 180.926C183.011 181.46 183.153 181.876 183.254 182.186C183.295 182.318 183.33 182.424 183.361 182.516C183.366 182.553 183.366 182.59 183.361 182.627Z" fill="#E0E0E0"/>
<path d="M182.63 158.067C182.564 158.097 180.848 154.696 178.801 150.451C176.755 146.206 175.151 142.774 175.217 142.739C175.283 142.703 176.994 146.11 179.04 150.354C181.086 154.599 182.691 158.036 182.63 158.067Z" fill="#E0E0E0"/>
<path d="M161.874 173.736C161.874 173.665 165.56 172.553 170.15 171.253C174.739 169.954 178.491 168.953 178.491 169.029C178.491 169.106 174.805 170.212 170.216 171.512C165.626 172.812 161.894 173.807 161.874 173.736Z" fill="#E0E0E0"/>
<path d="M195.018 9.35938H43.2129V136.977H195.018V9.35938Z" fill="#EBEBEB"/>
<path d="M43.5073 18.1574C43.5073 18.0863 77.3626 18.0254 119.113 18.0254C160.863 18.0254 194.739 18.1016 194.739 18.1574C194.739 18.2133 160.894 18.2894 119.128 18.2894C77.3626 18.2894 43.5073 18.2437 43.5073 18.1574Z" fill="#E0E0E0"/>
<path d="M48.1277 15.228C49.025 15.228 49.7524 14.5006 49.7524 13.6032C49.7524 12.7059 49.025 11.9785 48.1277 11.9785C47.2303 11.9785 46.5029 12.7059 46.5029 13.6032C46.5029 14.5006 47.2303 15.228 48.1277 15.228Z" fill="#E0E0E0"/>
<path d="M52.6413 15.228C53.5386 15.228 54.2661 14.5006 54.2661 13.6032C54.2661 12.7059 53.5386 11.9785 52.6413 11.9785C51.744 11.9785 51.0166 12.7059 51.0166 13.6032C51.0166 14.5006 51.744 15.228 52.6413 15.228Z" fill="#E0E0E0"/>
<path d="M57.6526 15.228C58.5499 15.228 59.2773 14.5006 59.2773 13.6032C59.2773 12.7059 58.5499 11.9785 57.6526 11.9785C56.7552 11.9785 56.0278 12.7059 56.0278 13.6032C56.0278 14.5006 56.7552 15.228 57.6526 15.228Z" fill="#E0E0E0"/>
<path d="M221.978 208.341C221.978 208.417 172.429 208.473 111.324 208.473C50.2192 208.473 0.639648 208.417 0.639648 208.341C0.639648 208.265 50.1786 208.209 111.324 208.209C172.47 208.209 221.978 208.27 221.978 208.341Z" fill="#263238"/>
<path d="M189.154 150.53C189.154 149.601 189.108 98.4731 189.042 19.5875L189.154 19.6839H33.4036L33.5356 19.5519C33.5356 67.0041 33.5356 111.76 33.5356 150.495L33.4137 150.378L189.179 150.495L33.4137 150.612H33.2817V150.495C33.2817 111.76 33.2817 67.0041 33.2817 19.5519V19.4199H33.429H189.179H189.291V19.5316C189.22 98.4731 189.154 149.601 189.154 150.53Z" fill="#FAFAFA"/>
<path d="M189.174 19.5879H33.4087V150.531H189.174V19.5879Z" fill="#FAFAFA"/>
<path d="M89.6446 28.6309H33.7134V41.451H89.6446V28.6309Z" fill="#EBEBEB"/>
<path d="M47.8181 38.9774C47.8181 38.9774 47.8181 38.8099 47.8181 38.5052C47.8181 38.2006 47.8181 37.7487 47.8181 37.2156C47.8181 36.0783 47.7877 34.5043 47.7623 32.6054L47.8689 32.7121H38.5927L38.7247 32.5801V35.8854C38.7247 36.9516 38.7247 37.9721 38.7247 38.9317L38.6029 38.8099L45.2592 38.8708L47.1784 38.9063H47.6861H47.874C47.6565 38.9305 47.4378 38.9407 47.219 38.9368L45.3252 38.9673L38.5927 39.0282H38.4759V38.9774C38.4759 38.0077 38.4759 36.9871 38.4759 35.9311V34.2962C38.4759 34.022 38.4759 33.7428 38.4759 33.4635V32.5953C38.3592 32.7121 38.6384 32.4328 38.613 32.4633H47.8892H47.9958V32.5699C47.9958 34.4993 47.9552 36.0935 47.94 37.2461C47.94 37.7538 47.94 38.1904 47.94 38.5154C47.9143 38.673 47.8735 38.8277 47.8181 38.9774Z" fill="#263238"/>
<path d="M47.8184 32.5852C47.8184 32.5852 47.7117 32.7324 47.4883 32.9609C47.2649 33.1894 46.9349 33.5092 46.5237 33.9052C45.7011 34.6973 44.5486 35.7788 43.2691 36.9516C42.9086 36.9516 43.1676 36.9516 43.0863 36.9516H43.0559L42.995 36.8958L42.8782 36.7841L42.6395 36.5657L42.1826 36.1392L41.3144 35.332L39.8369 33.9002C39.4256 33.5041 39.0956 33.1843 38.8671 32.9558C38.7409 32.8458 38.6299 32.7195 38.5371 32.5801C38.5371 32.5801 38.6945 32.6715 38.9382 32.8796C39.1819 33.0878 39.5323 33.3874 39.9537 33.7631L41.4464 35.1035L42.3197 35.9006L42.7817 36.322L43.0203 36.5403L43.1371 36.6521L43.198 36.7028L43.2285 36.7333H43.066C44.3455 35.5554 45.5133 34.4942 46.3713 33.7377C46.7978 33.362 47.1482 33.0573 47.3868 32.8543C47.517 32.7443 47.6623 32.6536 47.8184 32.5852Z" fill="#263238"/>
<path d="M41.6291 35.4238C41.2162 36.0973 40.7291 36.7223 40.177 37.2872C39.6926 37.9113 39.139 38.4785 38.5269 38.9779C38.9407 38.3067 39.4277 37.6835 39.979 37.1196C40.4642 36.4947 41.0176 35.9259 41.6291 35.4238Z" fill="#263238"/>
<path d="M47.8788 39.0337C47.28 38.5005 46.742 37.9029 46.2744 37.2516C45.7376 36.653 45.2677 35.9975 44.873 35.2969C45.4726 35.8311 46.0107 36.4306 46.4775 37.0841C47.0148 37.6805 47.4848 38.3343 47.8788 39.0337Z" fill="#263238"/>
<path d="M83.2215 34.8137C83.2215 34.8898 76.6718 34.9457 68.5989 34.9457C60.526 34.9457 53.9814 34.8898 53.9814 34.8137C53.9814 34.7375 60.526 34.6816 68.5989 34.6816C76.6718 34.6816 83.2215 34.7426 83.2215 34.8137Z" fill="#263238"/>
<path d="M189.174 85.5781H88.9336V107.542H189.174V85.5781Z" fill="#F88821"/>
<g opacity="0.8">
<path opacity="0.8" d="M189.175 85.5781H88.9341V107.542H189.175V85.5781Z" fill="white"/>
</g>
<path d="M102.47 92.4414H96.5242C95.8933 92.4414 95.3818 92.9529 95.3818 93.5838V99.5293C95.3818 100.16 95.8933 100.672 96.5242 100.672H102.47C103.101 100.672 103.612 100.16 103.612 99.5293V93.5838C103.612 92.9529 103.101 92.4414 102.47 92.4414Z" fill="#F88821"/>
<path d="M98.8751 98.3812C98.7652 98.3812 98.6583 98.3456 98.5704 98.2797L96.9102 97.0307C96.8503 96.9934 96.7989 96.9441 96.7592 96.8858C96.7195 96.8276 96.6923 96.7617 96.6794 96.6924C96.6666 96.6231 96.6683 96.5519 96.6844 96.4832C96.7006 96.4146 96.7309 96.3501 96.7734 96.2938C96.8158 96.2376 96.8696 96.1908 96.9311 96.1564C96.9927 96.122 97.0607 96.1009 97.1309 96.0942C97.2011 96.0876 97.2719 96.0957 97.3388 96.1179C97.4057 96.1401 97.4672 96.176 97.5195 96.2234L98.8142 97.1931L101.414 94.3702C101.505 94.2712 101.632 94.2127 101.767 94.2074C101.902 94.2022 102.033 94.2507 102.132 94.3422C102.231 94.4338 102.29 94.5609 102.295 94.6957C102.3 94.8304 102.252 94.9617 102.16 95.0607L99.2508 98.2187C99.2029 98.2704 99.1447 98.3115 99.08 98.3395C99.0154 98.3675 98.9456 98.3817 98.8751 98.3812Z" fill="white"/>
<path d="M189.174 63.5H88.9336V85.4643H189.174V63.5Z" fill="#F88821"/>
<path d="M188.57 85.5461C188.57 85.6222 166.423 85.6781 139.107 85.6781C111.792 85.6781 89.6445 85.6222 89.6445 85.5461C89.6445 85.4699 111.787 85.4141 139.107 85.4141C166.428 85.4141 188.57 85.475 188.57 85.5461Z" fill="#263238"/>
<path d="M189.23 129.486H88.9897V150.532H189.23V129.486Z" fill="#F88821"/>
<g opacity="0.8">
<path opacity="0.8" d="M189.23 129.484H88.9893V150.53H189.23V129.484Z" fill="white"/>
</g>
<path d="M102.52 136.354H96.575C95.9441 136.354 95.4326 136.865 95.4326 137.496V143.441C95.4326 144.072 95.9441 144.584 96.575 144.584H102.52C103.151 144.584 103.663 144.072 103.663 143.441V137.496C103.663 136.865 103.151 136.354 102.52 136.354Z" fill="#F88821"/>
<path d="M98.9258 142.3C98.816 142.3 98.7091 142.264 98.6212 142.198L96.9609 140.949C96.8532 140.868 96.782 140.748 96.7629 140.615C96.7439 140.482 96.7786 140.346 96.8594 140.238C96.9402 140.131 97.0604 140.059 97.1937 140.04C97.327 140.021 97.4625 140.056 97.5702 140.137L98.8649 141.112L101.464 138.289C101.508 138.235 101.562 138.19 101.624 138.158C101.685 138.126 101.753 138.106 101.822 138.101C101.891 138.096 101.961 138.105 102.026 138.128C102.092 138.15 102.152 138.186 102.203 138.233C102.254 138.28 102.295 138.337 102.324 138.401C102.352 138.464 102.367 138.533 102.367 138.602C102.368 138.672 102.355 138.74 102.328 138.804C102.301 138.868 102.261 138.926 102.211 138.974L99.2863 142.137C99.2401 142.187 99.1844 142.227 99.1225 142.255C99.0606 142.283 98.9937 142.298 98.9258 142.3Z" fill="white"/>
<g opacity="0.8">
<path opacity="0.8" d="M189.175 63.5H88.9341V85.4643H189.175V63.5Z" fill="white"/>
</g>
<path d="M102.47 70.3652H96.5242C95.8933 70.3652 95.3818 70.8767 95.3818 71.5076V77.4531C95.3818 78.084 95.8933 78.5955 96.5242 78.5955H102.47C103.101 78.5955 103.612 78.084 103.612 77.4531V71.5076C103.612 70.8767 103.101 70.3652 102.47 70.3652Z" fill="#F88821"/>
<path d="M98.8751 76.3093C98.7652 76.3093 98.6583 76.2737 98.5704 76.2078L96.9102 74.9588C96.8503 74.9215 96.7989 74.8722 96.7592 74.8139C96.7195 74.7557 96.6923 74.6898 96.6794 74.6205C96.6666 74.5512 96.6683 74.48 96.6844 74.4114C96.7006 74.3427 96.7309 74.2782 96.7734 74.222C96.8158 74.1657 96.8696 74.1189 96.9311 74.0845C96.9927 74.0501 97.0607 74.029 97.1309 74.0223C97.2011 74.0157 97.2719 74.0238 97.3388 74.046C97.4057 74.0682 97.4672 74.1042 97.5195 74.1515L98.8142 75.1213L101.414 72.2983C101.505 72.1996 101.631 72.1409 101.765 72.1352C101.9 72.1295 102.031 72.1772 102.13 72.2678C102.179 72.313 102.219 72.3675 102.248 72.4283C102.276 72.4891 102.292 72.5549 102.295 72.622C102.298 72.689 102.288 72.7559 102.264 72.8189C102.241 72.8819 102.206 72.9396 102.16 72.9888L99.2508 76.1469C99.2029 76.1985 99.1447 76.2397 99.08 76.2676C99.0154 76.2956 98.9456 76.3098 98.8751 76.3093Z" fill="white"/>
<path d="M189.154 150.53C189.154 149.601 189.108 98.4731 189.042 19.5875L189.154 19.6839H33.4036L33.5356 19.5519C33.5356 67.0041 33.5356 111.76 33.5356 150.495L33.4137 150.378L189.179 150.495L33.4137 150.612H33.2817V150.495C33.2817 111.76 33.2817 67.0041 33.2817 19.5519V19.4199H33.429H189.179H189.291V19.5316C189.22 98.4731 189.154 149.601 189.154 150.53Z" fill="#F88821"/>
<path d="M33.7134 28.6301C33.7134 28.5539 68.447 28.498 111.289 28.498C154.131 28.498 188.875 28.5539 188.875 28.6301C188.875 28.7062 154.146 28.7621 111.289 28.7621C68.4318 28.7621 33.7134 28.7011 33.7134 28.6301Z" fill="#F88821"/>
<path d="M38.4554 25.6041C39.3751 25.6041 40.1207 24.8585 40.1207 23.9388C40.1207 23.019 39.3751 22.2734 38.4554 22.2734C37.5356 22.2734 36.79 23.019 36.79 23.9388C36.79 24.8585 37.5356 25.6041 38.4554 25.6041Z" fill="#F88821"/>
<path d="M43.0858 25.6041C44.0055 25.6041 44.7511 24.8585 44.7511 23.9388C44.7511 23.019 44.0055 22.2734 43.0858 22.2734C42.166 22.2734 41.4204 23.019 41.4204 23.9388C41.4204 24.8585 42.166 25.6041 43.0858 25.6041Z" fill="#F88821"/>
<path d="M49.4019 22.7596C49.6347 22.9925 49.7932 23.2893 49.8574 23.6123C49.9215 23.9353 49.8885 24.2701 49.7624 24.5744C49.6363 24.8786 49.4229 25.1386 49.1491 25.3216C48.8752 25.5045 48.5533 25.6022 48.2239 25.6022C47.8946 25.6022 47.5727 25.5045 47.2988 25.3216C47.025 25.1386 46.8115 24.8786 46.6855 24.5744C46.5594 24.2701 46.5263 23.9353 46.5905 23.6123C46.6547 23.2893 46.8132 22.9925 47.046 22.7596C47.2007 22.6049 47.3843 22.4821 47.5864 22.3983C47.7885 22.3146 48.0052 22.2715 48.2239 22.2715C48.4427 22.2715 48.6594 22.3146 48.8615 22.3983C49.0636 22.4821 49.2472 22.6049 49.4019 22.7596Z" fill="#F88821"/>
<path d="M54.0985 46.593C54.2182 46.5782 54.3392 46.5782 54.4589 46.593L55.515 46.5625L59.3839 46.5117H59.4347L59.4651 46.5523L61.1711 48.7965L61.1965 48.832V48.8727C61.1965 49.8881 61.1965 51.0153 61.1965 52.183V52.315H59.5108H52.5448H52.4331V52.178C52.4331 51.0305 52.4331 50.01 52.4636 49.1316L53.6516 47.2682C53.7847 47.033 53.934 46.8074 54.0985 46.593C54.0764 46.6609 54.0457 46.7258 54.0071 46.7859L53.7177 47.2936L52.621 49.1671V49.1214C52.621 49.9846 52.621 51.0051 52.6464 52.1678L52.5346 52.0561H59.5007H61.0594L60.9274 52.1881C60.9274 51.0203 60.9274 49.9033 60.9274 48.8777L60.9528 48.9488L59.2773 46.6894L59.3636 46.73L55.5353 46.6793H54.4691C54.3432 46.6616 54.2192 46.6327 54.0985 46.593Z" fill="#263238"/>
<path d="M61.0801 49.0187C60.84 49.0834 60.5926 49.1175 60.3439 49.1203C59.8768 49.1609 59.2066 49.2066 58.4095 49.2574L58.5161 49.1457C58.4968 49.5699 58.3577 49.9801 58.115 50.3287C57.9825 50.5201 57.8091 50.6797 57.6073 50.7958C57.3841 50.899 57.1423 50.956 56.8964 50.9633C56.6347 50.9741 56.3738 50.9269 56.1324 50.8251C55.891 50.7233 55.6751 50.5694 55.5002 50.3744C55.209 50.0258 55.0131 49.6077 54.9315 49.1609L55.0432 49.2523C54.302 49.2523 53.6825 49.2269 53.251 49.2066C53.0235 49.211 52.7964 49.1854 52.5757 49.1304C52.7974 49.0825 53.0242 49.062 53.251 49.0695C53.6825 49.0695 54.302 49.034 55.0432 49.0187H55.1143V49.1152C55.2007 49.5124 55.3838 49.8822 55.6474 50.1916C55.7973 50.3595 55.9824 50.4921 56.1896 50.5798C56.3968 50.6676 56.6208 50.7084 56.8457 50.6993C57.0531 50.6985 57.2577 50.6517 57.4448 50.5622C57.6209 50.4712 57.7738 50.3409 57.8916 50.1814C58.1071 49.874 58.2368 49.5147 58.2673 49.1406V49.034H58.3638C59.166 49.0086 59.8362 48.9933 60.3084 48.9883C60.5659 48.9656 60.8252 48.9759 61.0801 49.0187Z" fill="#263238"/>
<path d="M80.1653 46.8722C80.3069 46.8403 80.4519 46.8266 80.5969 46.8316V46.9129C79.5815 46.9636 76.4386 47.0043 72.7525 47.0043C70.4677 47.0043 68.3962 47.0043 66.8984 46.9636L65.1265 46.923C64.9086 46.9303 64.6906 46.9133 64.4766 46.8722C64.6906 46.8312 64.9086 46.8142 65.1265 46.8215L66.8984 46.7809C68.3962 46.7555 70.4525 46.7402 72.7525 46.7402C76.4386 46.7402 79.5611 46.7809 80.5969 46.8316V46.9129C80.4518 46.9212 80.3063 46.9075 80.1653 46.8722Z" fill="#263238"/>
<path d="M80.1653 50.1984C80.3063 50.1631 80.4518 50.1494 80.5969 50.1578V50.239C79.5815 50.2898 76.4386 50.3304 72.7525 50.3304C70.4677 50.3304 68.3962 50.3304 66.8984 50.2898L65.1265 50.2492C64.9087 50.2532 64.6911 50.2362 64.4766 50.1984C64.6906 50.1569 64.9085 50.1381 65.1265 50.1426L66.8984 50.102C68.3962 50.102 70.4525 50.0664 72.7525 50.0664C76.4386 50.0664 79.5611 50.102 80.5969 50.1578V50.239C80.452 50.2407 80.3074 50.2271 80.1653 50.1984Z" fill="#263238"/>
<path d="M80.1653 53.5187C80.3069 53.4868 80.4519 53.4731 80.5969 53.4781V53.5593C79.5815 53.6152 76.4386 53.6507 72.7525 53.6507C70.4677 53.6507 68.3962 53.6507 66.8984 53.6152L65.1265 53.5695C64.9086 53.5768 64.6906 53.5598 64.4766 53.5187C64.6911 53.4809 64.9087 53.4639 65.1265 53.4679L66.8984 53.4273C68.3962 53.402 70.4525 53.3867 72.7525 53.3867C76.4386 53.3867 79.5611 53.4273 80.5969 53.4781V53.5593C80.4518 53.5677 80.3063 53.554 80.1653 53.5187Z" fill="#263238"/>
<path d="M54.0985 70.3898C54.2171 70.366 54.338 70.3558 54.4589 70.3594L55.515 70.334L59.3839 70.2832H59.4347L59.4651 70.3238L61.1711 72.568L61.1965 72.6035V72.6441C61.1965 73.6596 61.1965 74.7867 61.1965 75.9545V76.0865H59.5108H52.5448H52.4331V75.9748C52.4331 74.8274 52.4331 73.8068 52.4636 72.9285V72.9031L53.6516 71.0397C53.7816 70.8206 53.9258 70.6103 54.0832 70.4101C54.0612 70.4781 54.0305 70.543 53.9918 70.6031L53.7024 71.1108L52.626 72.9945V72.9488C52.626 73.8119 52.626 74.8324 52.6514 75.9951L52.5397 75.8834H59.5057H61.0645L60.9325 76.0154C60.9325 74.8477 60.9325 73.7307 60.9325 72.7051L60.9578 72.7761L59.2824 70.5168L59.3687 70.5574L55.5404 70.5066H54.4742C54.3456 70.4794 54.2198 70.4403 54.0985 70.3898Z" fill="#263238"/>
<path d="M61.0801 72.8033C60.84 72.868 60.5926 72.9021 60.3439 72.9049C59.8768 72.9455 59.2066 72.9912 58.4095 73.042L58.5161 72.9303C58.4968 73.3546 58.3577 73.7647 58.115 74.1133C57.9825 74.3047 57.8091 74.4643 57.6073 74.5804C57.3841 74.6836 57.1423 74.7406 56.8964 74.7479C56.6347 74.7587 56.3738 74.7116 56.1324 74.6097C55.891 74.5079 55.6751 74.354 55.5002 74.159C55.209 73.8104 55.0131 73.3923 54.9315 72.9455L55.0432 73.0369C54.302 73.0369 53.6825 73.0115 53.251 72.9912C53.0239 72.999 52.7969 72.9768 52.5757 72.9252C52.7974 72.8768 53.0241 72.8546 53.251 72.8592L55.0432 72.8135H55.1143V72.91C55.2007 73.3072 55.3838 73.6769 55.6474 73.9863C55.7973 74.1542 55.9824 74.2868 56.1896 74.3746C56.3968 74.4624 56.6208 74.5032 56.8457 74.4941C57.0531 74.4933 57.2577 74.4464 57.4448 74.357C57.6209 74.2659 57.7738 74.1356 57.8916 73.9762C58.1071 73.6688 58.2368 73.3095 58.2673 72.9353V72.8287H58.3638C59.166 72.8287 59.8362 72.7881 60.3084 72.783C60.5654 72.757 60.8248 72.7639 61.0801 72.8033Z" fill="#263238"/>
<path d="M80.1653 70.6554C80.3069 70.6235 80.4519 70.6098 80.5969 70.6148V70.6961C79.5815 70.7468 76.4386 70.7875 72.7525 70.7875C70.4677 70.7875 68.3962 70.7875 66.8984 70.7468L65.1265 70.7062C64.9086 70.7135 64.6906 70.6965 64.4766 70.6554C64.6906 70.6144 64.9086 70.5974 65.1265 70.6047L66.8984 70.5641C68.3962 70.5387 70.4525 70.5234 72.7525 70.5234C76.4386 70.5234 79.5611 70.5641 80.5969 70.6148V70.6961C80.4519 70.701 80.3069 70.6874 80.1653 70.6554Z" fill="#263238"/>
<path d="M80.1653 73.9801C80.3063 73.9448 80.4518 73.9311 80.5969 73.9394V74.0105C79.5815 74.0613 76.4386 74.1019 72.7525 74.1019C70.4677 74.1019 68.3962 74.1019 66.8984 74.0613L65.1265 74.0207C64.9087 74.0247 64.6911 74.0077 64.4766 73.9699C64.6906 73.9283 64.9085 73.9096 65.1265 73.914L66.8984 73.8734C68.3962 73.848 70.4525 73.8379 72.7525 73.8379C76.4386 73.8379 79.5611 73.8734 80.5969 73.9293V74.0105C80.4524 74.0155 80.3077 74.0053 80.1653 73.9801Z" fill="#263238"/>
<path d="M80.1653 77.3C80.3069 77.268 80.4519 77.2544 80.5969 77.2594V77.3406C79.5815 77.3964 76.4386 77.432 72.7525 77.432C70.4677 77.432 68.3962 77.432 66.8984 77.3964L65.1265 77.3508C64.9086 77.3581 64.6906 77.341 64.4766 77.3C64.6911 77.2622 64.9087 77.2452 65.1265 77.2492L66.8984 77.2086C68.3962 77.1832 70.4525 77.168 72.7525 77.168C76.4386 77.168 79.5611 77.2086 80.5969 77.2594V77.3406C80.4518 77.349 80.3063 77.3353 80.1653 77.3Z" fill="#263238"/>
<path d="M54.0985 94.173C54.2171 94.1492 54.338 94.139 54.4589 94.1426L55.515 94.1172L59.3839 94.0664H59.4347L59.4651 94.107L61.1711 96.3512L61.1965 96.3867V96.4273C61.1965 97.4428 61.1965 98.5699 61.1965 99.7377V99.8697H59.5108H52.5448H52.4331V99.758C52.4331 98.6106 52.4331 97.59 52.4636 96.7117L53.6516 94.8483C53.7816 94.6292 53.9258 94.4189 54.0832 94.2187C54.0612 94.2867 54.0305 94.3516 53.9918 94.4117L53.7024 94.9194L52.6057 96.7929V96.7472C52.6057 97.6103 52.6057 98.6309 52.6311 99.7936L52.5194 99.6819H59.4854H61.0442L60.9122 99.8139C60.9122 98.6461 60.9122 97.5291 60.9122 96.5035L60.9375 96.5746L59.262 94.3152L59.3484 94.3558L55.5201 94.305H54.4539C54.3317 94.2717 54.2128 94.2275 54.0985 94.173Z" fill="#263238"/>
<path d="M61.0801 96.5846C60.84 96.6492 60.5926 96.6833 60.3439 96.6861C59.8768 96.7267 59.2066 96.7724 58.4095 96.8232L58.5161 96.7115C58.4968 97.1358 58.3577 97.546 58.115 97.8945C57.9825 98.086 57.8091 98.2455 57.6073 98.3616C57.3845 98.4656 57.1422 98.521 56.8964 98.5241C56.6349 98.537 56.3738 98.4913 56.1322 98.3902C55.8906 98.2892 55.6747 98.1354 55.5002 97.9402C55.209 97.5916 55.0131 97.1736 54.9315 96.7267L55.0432 96.8181C54.302 96.8181 53.6825 96.8181 53.251 96.7724C53.0239 96.7802 52.7969 96.758 52.5757 96.7064C52.7974 96.658 53.0241 96.6359 53.251 96.6404L55.0432 96.5947H55.1143V96.6912C55.2007 97.0884 55.3838 97.4582 55.6474 97.7676C55.7973 97.9355 55.9824 98.0681 56.1896 98.1559C56.3968 98.2437 56.6208 98.2844 56.8457 98.2753C57.0531 98.2745 57.2577 98.2277 57.4448 98.1382C57.6209 98.0472 57.7738 97.9169 57.8916 97.7574C58.1071 97.45 58.2368 97.0908 58.2673 96.7166V96.61H58.3638C59.166 96.5795 59.8362 96.5693 60.3084 96.5643C60.5654 96.5383 60.8248 96.5451 61.0801 96.5846Z" fill="#263238"/>
<path d="M80.1653 94.4367C80.3069 94.4047 80.4519 94.3911 80.5969 94.3961V94.4773C79.5815 94.5281 76.4386 94.5687 72.7525 94.5687C70.4677 94.5687 68.3962 94.5687 66.8984 94.5281L65.1265 94.4875C64.9086 94.4948 64.6906 94.4777 64.4766 94.4367C64.6906 94.3956 64.9086 94.3786 65.1265 94.3859L66.8984 94.3453C68.3962 94.3199 70.4525 94.3047 72.7525 94.3047C76.4386 94.3047 79.5611 94.3453 80.5969 94.3961V94.4773C80.4519 94.4823 80.3069 94.4686 80.1653 94.4367Z" fill="#263238"/>
<path d="M80.1653 97.7629C80.3063 97.7276 80.4518 97.7139 80.5969 97.7222V97.8035C79.5815 97.8543 76.4386 97.8949 72.7525 97.8949C70.4677 97.8949 68.3962 97.8949 66.8984 97.8543L65.1265 97.8136C64.9087 97.8177 64.6911 97.8007 64.4766 97.7629C64.6906 97.7213 64.9085 97.7026 65.1265 97.707L66.8984 97.6664C68.3962 97.641 70.4525 97.6309 72.7525 97.6309C76.4386 97.6309 79.5611 97.6664 80.5969 97.7222V97.8035C80.452 97.8051 80.3074 97.7915 80.1653 97.7629Z" fill="#263238"/>
<path d="M80.1653 101.083C80.3069 101.051 80.4519 101.038 80.5969 101.043V101.124C79.5815 101.18 76.4386 101.215 72.7525 101.215C70.4677 101.215 68.3962 101.215 66.8984 101.18L65.1265 101.134C64.9086 101.141 64.6906 101.124 64.4766 101.083C64.6911 101.045 64.9087 101.028 65.1265 101.032L66.8984 100.992C68.3962 100.992 70.4525 100.951 72.7525 100.951C76.4386 100.951 79.5611 100.992 80.5969 101.043V101.124C80.4518 101.132 80.3063 101.118 80.1653 101.083Z" fill="#263238"/>
<path d="M181.092 78.86H177.223C177.02 78.8634 176.82 78.8264 176.632 78.7514C176.444 78.6764 176.273 78.5647 176.129 78.4229C175.985 78.2812 175.871 78.1121 175.792 77.9256C175.714 77.7392 175.674 77.539 175.674 77.3368V70.8887H176.182V77.3165C176.182 77.452 176.209 77.5862 176.261 77.711C176.314 77.8359 176.391 77.949 176.488 78.0437C176.585 78.1383 176.7 78.2126 176.826 78.2621C176.952 78.3116 177.087 78.3353 177.223 78.3319H181.092C181.361 78.3319 181.619 78.225 181.81 78.0345C182 77.8441 182.107 77.5858 182.107 77.3165V71.1121H182.615V77.3165C182.617 77.5182 182.58 77.7185 182.505 77.9056C182.429 78.0928 182.318 78.2631 182.176 78.4067C182.034 78.5503 181.865 78.6643 181.679 78.7421C181.493 78.8199 181.293 78.86 181.092 78.86Z" fill="#F88821"/>
<path d="M183.275 70.9238H175.039V71.4316H183.275V70.9238Z" fill="#F88821"/>
<path d="M177.659 71.1767H177.151V70.6131C177.151 70.3438 177.258 70.0855 177.449 69.8951C177.639 69.7046 177.898 69.5977 178.167 69.5977H180.198C180.467 69.5977 180.725 69.7046 180.916 69.8951C181.106 70.0855 181.213 70.3438 181.213 70.6131V71.065H180.705V70.6131C180.705 70.4785 180.652 70.3493 180.557 70.2541C180.462 70.1589 180.332 70.1054 180.198 70.1054H178.167C178.032 70.1054 177.903 70.1589 177.808 70.2541C177.713 70.3493 177.659 70.4785 177.659 70.6131V71.1767Z" fill="#F88821"/>
<path d="M177.984 76.961C177.854 76.241 177.81 75.5082 177.852 74.7778C177.81 74.049 177.854 73.3179 177.984 72.5996C178.117 73.3175 178.162 74.049 178.116 74.7778C178.162 75.5082 178.117 76.2414 177.984 76.961Z" fill="#F88821"/>
<path d="M179.177 76.961C179.047 76.241 179.003 75.5082 179.045 74.7778C179.003 74.049 179.047 73.3179 179.177 72.5996C179.31 73.3175 179.355 74.049 179.309 74.7778C179.355 75.5082 179.311 76.2414 179.177 76.961Z" fill="#F88821"/>
<path d="M180.381 76.961C180.251 76.241 180.206 75.5082 180.249 74.7778C180.206 74.049 180.251 73.3179 180.381 72.5996C180.514 73.3175 180.558 74.049 180.513 74.7778C180.559 75.5082 180.514 76.2414 180.381 76.961Z" fill="#F88821"/>
<path d="M181.092 99.6756H177.223C176.812 99.6743 176.419 99.5107 176.129 99.2206C175.839 98.9305 175.675 98.5373 175.674 98.127V91.6992H176.182V98.127C176.182 98.4031 176.291 98.6678 176.487 98.863C176.682 99.0582 176.947 99.1679 177.223 99.1679H181.092C181.363 99.1613 181.621 99.0487 181.811 98.8542C182.001 98.6597 182.107 98.3988 182.107 98.127V91.9226H182.615V98.127C182.618 98.3292 182.581 98.53 182.506 98.7177C182.431 98.9055 182.319 99.0764 182.178 99.2206C182.036 99.3647 181.867 99.4792 181.68 99.5573C181.494 99.6354 181.294 99.6756 181.092 99.6756Z" fill="#F88821"/>
<path d="M183.275 91.7344H175.039V92.2421H183.275V91.7344Z" fill="#F88821"/>
<path d="M177.659 91.9892H177.151V91.4256C177.151 91.1563 177.258 90.898 177.449 90.7076C177.639 90.5171 177.898 90.4102 178.167 90.4102H180.198C180.467 90.4102 180.725 90.5171 180.916 90.7076C181.106 90.898 181.213 91.1563 181.213 91.4256V91.8775H180.705V91.4256C180.705 91.291 180.652 91.1618 180.557 91.0666C180.462 90.9714 180.332 90.9179 180.198 90.9179H178.167C178.032 90.9179 177.903 90.9714 177.808 91.0666C177.713 91.1618 177.659 91.291 177.659 91.4256V91.9892Z" fill="#F88821"/>
<path d="M177.984 97.7715C177.808 96.3231 177.808 94.8586 177.984 93.4102C178.16 94.8586 178.16 96.3231 177.984 97.7715Z" fill="#F88821"/>
<path d="M179.177 97.7715C179.001 96.3231 179.001 94.8586 179.177 93.4102C179.353 94.8586 179.353 96.3231 179.177 97.7715Z" fill="#F88821"/>
<path d="M180.381 97.7715C180.205 96.3231 180.205 94.8586 180.381 93.4102C180.557 94.8586 180.557 96.3231 180.381 97.7715Z" fill="#F88821"/>
<path d="M181.092 145.428H177.223C177.02 145.431 176.82 145.394 176.632 145.319C176.444 145.244 176.273 145.132 176.129 144.991C175.985 144.849 175.871 144.68 175.792 144.493C175.714 144.307 175.674 144.107 175.674 143.904V137.477H176.182V143.904C176.182 144.04 176.209 144.174 176.261 144.299C176.314 144.424 176.391 144.537 176.488 144.632C176.585 144.726 176.7 144.8 176.826 144.85C176.952 144.899 177.087 144.923 177.223 144.92H181.092C181.361 144.92 181.619 144.813 181.81 144.622C182 144.432 182.107 144.174 182.107 143.904V137.68H182.615V143.884C182.617 144.086 182.58 144.286 182.505 144.473C182.429 144.66 182.318 144.831 182.176 144.974C182.034 145.118 181.865 145.232 181.679 145.31C181.493 145.388 181.293 145.428 181.092 145.428Z" fill="#F88821"/>
<path d="M183.275 137.492H175.039V138H183.275V137.492Z" fill="#F88821"/>
<path d="M177.659 137.746H177.151V137.178C177.151 136.908 177.258 136.65 177.449 136.46C177.639 136.269 177.898 136.162 178.167 136.162H180.198C180.467 136.162 180.725 136.269 180.916 136.46C181.106 136.65 181.213 136.908 181.213 137.178V137.635H180.705V137.178C180.705 137.043 180.652 136.914 180.557 136.819C180.462 136.723 180.332 136.67 180.198 136.67H178.167C178.032 136.67 177.903 136.723 177.808 136.819C177.713 136.914 177.659 137.043 177.659 137.178V137.746Z" fill="#F88821"/>
<path d="M177.984 143.529C177.808 142.081 177.808 140.616 177.984 139.168C178.16 140.616 178.16 142.081 177.984 143.529Z" fill="#F88821"/>
<path d="M179.177 143.529C179.001 142.081 179.001 140.616 179.177 139.168C179.353 140.616 179.353 142.081 179.177 143.529Z" fill="#F88821"/>
<path d="M180.381 143.529C180.205 142.081 180.205 140.616 180.381 139.168C180.557 140.616 180.557 142.081 180.381 143.529Z" fill="#F88821"/>
<path d="M183.193 54.8705C183.175 54.7137 183.166 54.556 183.168 54.3983C183.168 54.0682 183.168 53.6418 183.168 53.1036C183.168 51.9713 183.132 50.3974 183.112 48.4934L183.219 48.6L173.922 48.6254L174.054 48.4934V50.1638C174.054 50.7173 174.054 51.2605 174.054 51.7936C174.054 52.8599 174.054 53.8855 174.054 54.84L173.932 54.7181L180.583 54.7791L182.508 54.8095H183.015H183.203C182.985 54.8208 182.767 54.8208 182.548 54.8095L180.655 54.8451L173.922 54.906H173.8V54.7842C173.8 53.8144 173.8 52.7888 173.8 51.7378V48.4376C173.683 48.5543 173.963 48.2751 173.932 48.3005L183.213 48.3309H183.32V48.4325C183.32 50.3618 183.279 51.9612 183.269 53.1086C183.269 53.6164 183.269 54.0581 183.239 54.378C183.236 54.543 183.221 54.7077 183.193 54.8705Z" fill="#263238"/>
<path d="M183.193 48.4922C183.101 48.6316 182.99 48.7579 182.863 48.8679C182.635 49.0964 182.305 49.4213 181.894 49.8174C181.071 50.6094 179.924 51.6858 178.639 52.8637H178.456L178.426 52.8333L178.37 52.7774L178.248 52.6708L178.015 52.4525L177.553 52.026L176.689 51.2187L175.232 49.8377C174.821 49.4416 174.491 49.1167 174.268 48.8882C174.141 48.7782 174.03 48.6519 173.938 48.5125C174.082 48.5975 174.216 48.6979 174.339 48.8121C174.582 49.0202 174.933 49.3198 175.354 49.7006L176.847 51.0359L177.725 51.833L178.187 52.2595L178.421 52.4728L178.543 52.5845L178.604 52.6403H178.634C178.553 52.6403 178.817 52.6403 178.456 52.6403C179.736 51.4573 180.909 50.4012 181.762 49.6447C182.193 49.2639 182.543 48.9644 182.777 48.7562C182.904 48.6508 183.044 48.562 183.193 48.4922Z" fill="#263238"/>
<path d="M177.004 51.3457C176.585 52.0113 176.097 52.6308 175.547 53.1938C175.063 53.8183 174.51 54.3856 173.897 54.8846C174.308 54.2101 174.796 53.5849 175.349 53.0212C175.835 52.4016 176.391 51.8395 177.004 51.3457Z" fill="#263238"/>
<path d="M183.249 54.9388C182.652 54.4041 182.114 53.8066 181.645 53.1567C181.11 52.5594 180.642 51.9057 180.249 51.207C180.846 51.7418 181.384 52.3393 181.853 52.9892C182.39 53.5848 182.858 54.2388 183.249 54.9388Z" fill="#263238"/>
<path d="M188.57 41.4504C188.57 41.5215 166.423 41.5824 139.108 41.5824C111.792 41.5824 89.6396 41.5164 89.6396 41.4504C89.6396 41.3844 111.782 41.3184 139.102 41.3184C166.423 41.3184 188.57 41.3793 188.57 41.4504Z" fill="#263238"/>
<path d="M188.57 63.5012C188.57 63.5722 166.423 63.6332 139.108 63.6332C111.792 63.6332 89.6396 63.5722 89.6396 63.5012C89.6396 63.4301 111.782 63.3691 139.102 63.3691C166.423 63.3691 188.57 63.425 188.57 63.5012Z" fill="#263238"/>
<path d="M188.57 107.146C188.57 107.217 166.423 107.278 139.108 107.278C111.792 107.278 89.6396 107.217 89.6396 107.146C89.6396 107.075 111.782 107.014 139.102 107.014C166.423 107.014 188.57 107.07 188.57 107.146Z" fill="#263238"/>
<path d="M188.57 129.486C188.57 129.562 166.423 129.618 139.107 129.618C111.792 129.618 89.6445 129.562 89.6445 129.486C89.6445 129.409 111.787 129.354 139.107 129.354C166.428 129.354 188.57 129.414 188.57 129.486Z" fill="#263238"/>
<path d="M102.475 56.7474C102.475 56.7474 102.587 56.7474 102.78 56.6763C103.059 56.5876 103.293 56.3925 103.43 56.1331C103.628 55.8031 103.526 55.3106 103.541 54.7521C103.556 54.1936 103.541 53.5589 103.541 52.8633C103.541 52.1677 103.541 51.3909 103.541 50.5735C103.541 50.3653 103.541 50.1571 103.541 49.9439C103.559 49.7411 103.542 49.5367 103.49 49.3397C103.426 49.1458 103.306 48.9757 103.143 48.8517C102.981 48.7276 102.786 48.6552 102.582 48.6441H96.5245C96.2891 48.6459 96.0617 48.7295 95.8811 48.8804C95.7005 49.0314 95.5779 49.2404 95.5344 49.4717C95.4988 49.9388 95.5344 50.4872 95.5344 50.9949C95.5344 52.0103 95.5344 52.975 95.5344 53.9042C95.5344 54.3662 95.5344 54.8181 95.5344 55.2598C95.5207 55.4651 95.5309 55.6712 95.5648 55.8741C95.6083 56.0663 95.7051 56.2423 95.8441 56.3819C95.978 56.5092 96.1423 56.6001 96.3214 56.6459C96.5041 56.677 96.6898 56.6872 96.8748 56.6763H97.9766L101.292 56.717L102.196 56.7424C102.301 56.7399 102.407 56.7484 102.511 56.7677C102.406 56.782 102.3 56.782 102.196 56.7677L101.292 56.7931L97.9766 56.8388H96.8748C96.6729 56.8532 96.47 56.8429 96.2706 56.8084C96.0487 56.7583 95.8449 56.6479 95.6819 56.4893C95.5188 56.3307 95.4027 56.1301 95.3465 55.9097C95.3034 55.6891 95.2897 55.4637 95.3059 55.2395C95.3059 54.7978 95.3059 54.3459 95.3059 53.8838C95.3059 52.9547 95.3059 51.9849 95.3059 50.9746V50.213C95.2887 49.9476 95.2887 49.6813 95.3059 49.4158C95.3655 49.1287 95.5223 48.8709 95.7498 48.686C95.9773 48.501 96.2617 48.4001 96.5549 48.4004H102.587C102.837 48.4178 103.076 48.5092 103.274 48.6629C103.472 48.8166 103.62 49.0256 103.699 49.2635C103.757 49.4852 103.778 49.7153 103.76 49.9439C103.76 50.1571 103.76 50.3653 103.76 50.5735C103.76 51.3909 103.76 52.1576 103.76 52.8633C103.76 53.5691 103.76 54.1936 103.76 54.7521C103.76 55.0313 103.76 55.2903 103.76 55.5289C103.766 55.7573 103.712 55.9833 103.602 56.1839C103.442 56.4554 103.181 56.6525 102.876 56.7322C102.746 56.7743 102.608 56.7796 102.475 56.7474Z" fill="#263238"/>
<path d="M102.475 122.635C102.475 122.635 102.587 122.635 102.78 122.564C103.059 122.475 103.293 122.28 103.43 122.021C103.628 121.691 103.526 121.198 103.541 120.64C103.556 120.081 103.541 119.447 103.541 118.751C103.541 118.056 103.541 117.279 103.541 116.461C103.541 116.253 103.541 116.045 103.541 115.832C103.559 115.629 103.542 115.425 103.49 115.228C103.426 115.034 103.306 114.864 103.143 114.74C102.981 114.615 102.786 114.543 102.582 114.532H96.5245C96.2898 114.534 96.0629 114.616 95.8824 114.766C95.702 114.916 95.579 115.124 95.5344 115.355C95.4988 115.827 95.5344 116.37 95.5344 116.878C95.5344 117.893 95.5344 118.858 95.5344 119.787C95.5344 120.249 95.5344 120.701 95.5344 121.138C95.5205 121.344 95.5308 121.552 95.5648 121.757C95.6066 121.95 95.7037 122.126 95.8441 122.265C95.9761 122.395 96.1412 122.486 96.3214 122.529C96.5036 122.564 96.6896 122.576 96.8748 122.564H97.9766L101.292 122.605L102.196 122.63C102.3 122.619 102.406 122.619 102.511 122.63C102.407 122.653 102.301 122.662 102.196 122.656L101.292 122.681L97.9766 122.722H96.8748C96.6729 122.736 96.47 122.726 96.2706 122.691C96.0487 122.641 95.8449 122.531 95.6819 122.372C95.5188 122.214 95.4027 122.013 95.3465 121.792C95.3029 121.57 95.2893 121.343 95.3059 121.117C95.3059 120.681 95.3059 120.229 95.3059 119.767C95.3059 118.838 95.3059 117.868 95.3059 116.857V116.096C95.2887 115.83 95.2887 115.564 95.3059 115.299C95.3603 115.007 95.5149 114.743 95.7429 114.553C95.9709 114.363 96.2581 114.259 96.5549 114.258H102.587C102.837 114.275 103.076 114.367 103.274 114.52C103.472 114.674 103.62 114.883 103.699 115.121C103.757 115.343 103.778 115.573 103.76 115.801C103.76 116.015 103.76 116.223 103.76 116.431C103.76 117.248 103.76 118.015 103.76 118.721C103.76 119.426 103.76 120.051 103.76 120.609C103.76 120.889 103.76 121.148 103.76 121.386C103.766 121.615 103.712 121.841 103.602 122.041C103.524 122.176 103.419 122.293 103.294 122.387C103.17 122.48 103.027 122.547 102.876 122.585C102.749 122.635 102.611 122.653 102.475 122.635Z" fill="#263238"/>
<path d="M88.9082 148.647C88.9082 148.647 88.9082 148.54 88.9082 148.337C88.9082 148.134 88.9082 147.829 88.9082 147.428C88.9082 146.616 88.9082 145.438 88.9082 143.93C88.9082 140.884 88.9082 136.492 88.9082 131.069C88.9082 120.214 89.0402 105.216 89.1925 88.6485C89.3448 72.0814 89.4616 57.0882 89.5581 46.2228C89.5936 40.8003 89.619 36.4085 89.6393 33.3621C89.6393 31.8389 89.6393 30.6762 89.6698 29.8689C89.6698 29.4729 89.6698 29.1733 89.6698 28.9601C89.6698 28.7469 89.6698 28.6504 89.6698 28.6504C89.6698 28.6504 89.6698 28.7519 89.6698 28.9601C89.6698 29.1683 89.6698 29.4678 89.6698 29.8689C89.6698 30.6762 89.6698 31.8541 89.6698 33.3621C89.6698 36.4085 89.6698 40.8003 89.6698 46.2228C89.6444 57.078 89.5378 72.0814 89.3804 88.6485C89.223 105.216 89.1113 120.204 89.0199 131.069C88.9844 136.492 88.959 140.884 88.9387 143.93C88.9387 145.453 88.9387 146.616 88.9082 147.428C88.9082 147.819 88.9082 148.119 88.9082 148.337C88.9082 148.555 88.9082 148.647 88.9082 148.647Z" fill="#263238"/>
<path d="M145.444 72.3469C145.444 72.4179 137.828 72.4789 128.405 72.4789C118.981 72.4789 111.365 72.4179 111.365 72.3469C111.365 72.2758 118.981 72.2148 128.405 72.2148C137.828 72.2148 145.444 72.2707 145.444 72.3469Z" fill="#263238"/>
<path d="M166.743 76.1027C166.743 76.1789 154.344 76.2347 139.057 76.2347C123.769 76.2347 111.365 76.1789 111.365 76.1027C111.365 76.0266 123.764 75.9707 139.057 75.9707C154.349 75.9707 166.743 76.0418 166.743 76.1027Z" fill="#263238"/>
<path d="M145.444 116.573C145.444 116.644 137.828 116.705 128.405 116.705C118.981 116.705 111.365 116.644 111.365 116.573C111.365 116.502 118.981 116.441 128.405 116.441C137.828 116.441 145.444 116.497 145.444 116.573Z" fill="#263238"/>
<path d="M166.743 120.331C166.743 120.402 154.344 120.463 139.057 120.463C123.769 120.463 111.365 120.402 111.365 120.331C111.365 120.26 123.764 120.199 139.057 120.199C154.349 120.199 166.743 120.26 166.743 120.331Z" fill="#263238"/>
<path d="M145.444 51.0929C145.444 51.1691 137.828 51.23 128.405 51.23C118.981 51.23 111.365 51.1691 111.365 51.0929C111.365 51.0168 118.981 50.9609 128.405 50.9609C137.828 50.9609 145.444 51.0219 145.444 51.0929Z" fill="#263238"/>
<path d="M166.743 54.8547C166.743 54.9258 154.344 54.9867 139.057 54.9867C123.769 54.9867 111.365 54.9258 111.365 54.8547C111.365 54.7836 123.764 54.7227 139.057 54.7227C154.349 54.7227 166.743 54.7836 166.743 54.8547Z" fill="#263238"/>
<path d="M145.444 94.0148C145.444 94.0859 137.828 94.1468 128.405 94.1468C118.981 94.1468 111.365 94.0859 111.365 94.0148C111.365 93.9437 118.981 93.8828 128.405 93.8828C137.828 93.8828 145.444 93.9437 145.444 94.0148Z" fill="#263238"/>
<path d="M166.743 97.7726C166.743 97.8488 154.344 97.9046 139.057 97.9046C123.769 97.9046 111.365 97.8488 111.365 97.7726C111.365 97.6965 123.764 97.6406 139.057 97.6406C154.349 97.6406 166.743 97.7016 166.743 97.7726Z" fill="#263238"/>
<path d="M145.444 137.558C145.444 137.629 137.828 137.69 128.405 137.69C118.981 137.69 111.365 137.629 111.365 137.558C111.365 137.487 118.981 137.426 128.405 137.426C137.828 137.426 145.444 137.477 145.444 137.558Z" fill="#263238"/>
<path d="M166.743 141.316C166.743 141.387 154.344 141.448 139.057 141.448C123.769 141.448 111.365 141.387 111.365 141.316C111.365 141.245 123.764 141.184 139.057 141.184C154.349 141.184 166.743 141.245 166.743 141.316Z" fill="#263238"/>
<path d="M184.112 31.3965H177.405V38.1036H184.112V31.3965Z" fill="#E0E0E0"/>
<path d="M173.191 31.3965H166.484V38.1036H173.191V31.3965Z" fill="#E0E0E0"/>
<path d="M162.27 31.3965H155.563V38.1036H162.27V31.3965Z" fill="#E0E0E0"/>
<path d="M40.5371 48.959L43.3855 52.6755L45.8225 48.959H40.5371Z" fill="#263238"/>
<path d="M34.363 97.1657C40.9634 88.4531 47.9498 89.6818 52.7884 91.7889C55.2017 92.8883 57.231 94.6845 58.6153 96.9465C59.9997 99.2085 60.6757 101.833 60.5566 104.482C60.4754 105.873 60.1758 107.336 60.7445 108.61C61.6533 110.641 64.2986 111.235 65.8218 112.87C67.9187 115.109 67.4567 118.648 66.7458 121.633C66.035 124.619 65.2937 128.02 67.0454 130.534C68.6549 132.834 71.7165 133.453 74.245 134.682C75.9226 135.483 77.4122 136.629 78.6161 138.046C79.8201 139.462 80.7113 141.117 81.2313 142.902C81.7225 144.698 81.7612 146.587 81.3439 148.402C80.9266 150.216 80.0663 151.899 78.8399 153.3C76.3825 155.971 72.6964 157.159 69.1068 157.687C63.8582 158.461 58.5031 158.062 53.4277 156.517C48.3522 154.971 43.6828 152.319 39.7561 148.752C35.8295 145.184 32.7434 140.789 30.7203 135.885C28.6972 130.98 27.7876 125.688 28.057 120.389" fill="#263238"/>
<path d="M53.1339 92.1604C52.3483 92.1559 51.5632 92.2 50.7831 92.2924C48.9179 92.6542 47.0894 93.1844 45.32 93.8765C43.2129 94.6127 41.1769 95.0239 39.6943 94.9275C39.1113 94.9059 38.5331 94.8121 37.9731 94.6482C37.7636 94.596 37.5621 94.5158 37.374 94.4096C38.1359 94.5995 38.915 94.7118 39.6994 94.7447C41.5958 94.6887 43.4688 94.311 45.2387 93.6277C47.3356 92.8915 49.3005 92.2568 50.7577 92.1045C51.3372 92.0341 51.922 92.0188 52.5043 92.0588C52.7177 92.0646 52.9294 92.0988 53.1339 92.1604Z" fill="#455A64"/>
<path d="M68.3451 161.459C68.5989 162.221 73.8641 187.099 73.8641 187.099L113.919 202.499L111.664 208.343L77.3217 205.322C57.2766 202.331 56.1647 192.496 57.3731 181.504L59.4497 162.662L68.3451 161.459Z" fill="#FFBE9D"/>
<path d="M10.7739 148.046C14.9017 141.796 21.1671 138.191 26.9044 136.195L47.9751 137.718C50.3313 137.515 52.7035 137.833 54.9223 138.652C57.141 139.471 59.1516 140.77 60.8105 142.456L62.7703 194.665L67.6089 208.374H17.481L10.7739 148.046Z" fill="#F88821"/>
<path d="M61.5817 163.875C61.5817 163.875 61.536 163.849 61.4598 163.794L61.1197 163.54C60.9425 163.393 60.7578 163.256 60.5662 163.129L59.7793 162.621C59.4645 162.453 59.1192 162.265 58.7384 162.078C57.2814 161.41 55.72 161 54.1232 160.864C52.7541 160.744 51.3747 160.829 50.0309 161.118C48.4877 161.442 47.021 162.059 45.7101 162.936C44.2329 163.857 43.052 165.184 42.3084 166.759C41.9367 167.588 41.7779 168.498 41.8463 169.404C41.9368 170.337 42.2887 171.226 42.8618 171.968C43.4231 172.713 44.2547 173.207 45.177 173.344C45.6113 173.424 46.0594 173.373 46.465 173.199C46.8707 173.024 47.2157 172.734 47.4567 172.364C47.645 171.978 47.7462 171.554 47.7532 171.125C47.7602 170.695 47.6729 170.269 47.4973 169.876C47.3487 169.479 47.1472 169.103 46.8982 168.759C46.6484 168.427 46.366 168.121 46.0554 167.845C44.8737 166.803 43.4403 166.087 41.8971 165.769C40.5542 165.473 39.1723 165.396 37.8048 165.54C35.8166 165.782 33.8616 166.245 31.9761 166.921L30.4275 167.429L30.0264 167.561C29.9815 167.581 29.9334 167.593 29.8843 167.597L30.0163 167.536L30.4123 167.378C30.7576 167.246 31.2755 167.048 31.9355 166.81C33.816 166.096 35.7741 165.607 37.7693 165.352C39.157 165.195 40.5611 165.261 41.9276 165.55C43.5095 165.874 44.9807 166.601 46.1976 167.663C46.36 167.805 46.5124 167.957 46.6596 168.114C46.8121 168.273 46.953 168.443 47.081 168.622C47.3428 168.982 47.5562 169.375 47.7157 169.79C47.9048 170.218 47.9979 170.683 47.9882 171.152C47.9786 171.62 47.8665 172.081 47.6598 172.501C47.4115 172.927 47.0268 173.256 46.5682 173.435C46.11 173.614 45.6138 173.674 45.1263 173.608C44.1333 173.466 43.2369 172.937 42.6333 172.136C42.0338 171.353 41.6693 170.416 41.5823 169.434C41.5143 168.482 41.689 167.529 42.09 166.662C42.8544 165.043 44.0711 163.68 45.5934 162.738C46.9348 161.853 48.432 161.231 50.0055 160.905C51.371 160.623 52.7709 160.548 54.1587 160.681C55.3032 160.781 56.4297 161.031 57.5097 161.423C57.9519 161.582 58.3857 161.763 58.8095 161.966C59.1954 162.164 59.5406 162.362 59.825 162.534L60.6069 163.068C60.7952 163.204 60.9765 163.35 61.1501 163.504L61.47 163.778L61.5817 163.875Z" fill="#FAFAFA"/>
<path d="M60.8104 142.43L73.2497 164.8L59.4497 169.04L60.8104 142.43Z" fill="#F88821"/>
<path d="M62.4804 194.812C62.4559 194.683 62.4423 194.553 62.4397 194.421C62.4397 194.142 62.4042 193.771 62.3737 193.304C62.3281 192.289 62.2671 190.898 62.1859 189.171C62.0437 185.688 61.866 180.87 61.7086 175.549C61.5512 170.228 61.4548 165.395 61.4243 161.912C61.4243 160.165 61.4243 158.753 61.4243 157.779C61.4243 157.312 61.4243 156.936 61.4243 156.657C61.4217 156.526 61.4302 156.395 61.4497 156.266C61.4731 156.395 61.4833 156.526 61.4801 156.657L61.5106 157.779C61.5106 158.794 61.5614 160.185 61.602 161.906C61.6934 165.42 61.8203 170.228 61.9625 175.539C62.1047 180.85 62.262 185.653 62.3636 189.166C62.4042 190.888 62.4397 192.294 62.4651 193.299C62.4651 193.766 62.4651 194.142 62.4651 194.421C62.4836 194.551 62.4887 194.682 62.4804 194.812Z" fill="#263238"/>
<path d="M64.4811 149.243C64.3948 149.321 64.2993 149.387 64.1968 149.441C63.9162 149.619 63.6245 149.778 63.3235 149.918C61.9172 150.536 60.3788 150.792 58.8483 150.664C57.3177 150.535 55.8436 150.026 54.5601 149.182C54.1111 148.901 53.7028 148.559 53.3467 148.167C52.9545 147.742 52.6935 147.213 52.5952 146.644C52.5397 146.346 52.5515 146.04 52.6297 145.747C52.7079 145.455 52.8505 145.183 53.0471 144.953C53.265 144.726 53.5384 144.559 53.8402 144.47C54.1421 144.381 54.462 144.373 54.7683 144.445C55.0732 144.502 55.3629 144.621 55.619 144.796C55.8751 144.971 56.092 145.197 56.2559 145.461C56.5483 145.988 56.6436 146.601 56.525 147.192C56.4199 147.75 56.1774 148.274 55.8193 148.715C55.475 149.132 55.0524 149.477 54.5754 149.731C53.6946 150.17 52.7384 150.439 51.7575 150.523C50.9145 150.618 50.0639 150.629 49.2188 150.553C47.9984 150.444 46.8007 150.155 45.6647 149.695C45.3561 149.571 45.0544 149.43 44.761 149.274C44.6538 149.228 44.553 149.168 44.4614 149.096C44.5704 149.134 44.6772 149.178 44.7813 149.228C44.9895 149.319 45.289 149.451 45.7003 149.599C46.8438 150.017 48.0399 150.275 49.2544 150.365C50.087 150.427 50.9237 150.407 51.7524 150.304C52.7024 150.214 53.6271 149.948 54.4789 149.517C54.9255 149.277 55.3219 148.953 55.6467 148.563C55.9738 148.152 56.1953 147.668 56.2915 147.151C56.3959 146.623 56.3095 146.074 56.0478 145.603C55.9044 145.37 55.7137 145.17 55.488 145.016C55.2623 144.862 55.0067 144.758 54.7378 144.709C54.4766 144.645 54.2031 144.649 53.9441 144.722C53.6851 144.795 53.4495 144.934 53.2603 145.126C53.0903 145.328 52.9674 145.565 52.9006 145.821C52.8339 146.076 52.8249 146.344 52.8745 146.603C52.9652 147.119 53.2013 147.598 53.5548 147.984C53.8945 148.374 54.2857 148.715 54.7175 148.999C56.2082 150.003 57.9671 150.534 59.7643 150.523C60.9821 150.53 62.1894 150.299 63.3184 149.842C64.0699 149.487 64.4659 149.218 64.4811 149.243Z" fill="#FAFAFA"/>
<path d="M61.8308 194.375L61.6886 194.279L61.2825 193.984C60.753 193.616 60.1982 193.285 59.6222 192.994C57.4931 191.943 55.1419 191.42 52.7679 191.471C49.7774 191.471 46.2385 192.487 42.8113 194.457C41.9321 194.953 41.1084 195.542 40.3539 196.213C39.5614 196.898 38.9036 197.724 38.4144 198.65C37.9168 199.607 37.7542 200.703 37.9524 201.763C38.0715 202.29 38.3434 202.77 38.7343 203.144C38.9259 203.325 39.1614 203.454 39.4177 203.517C39.6741 203.581 39.9425 203.576 40.1965 203.504C40.704 203.33 41.1243 202.966 41.3694 202.489C41.6279 202.01 41.7721 201.479 41.7908 200.935C41.7819 199.846 41.4458 198.785 40.8261 197.889C40.2364 197.022 39.4699 196.29 38.5769 195.741C37.7177 195.219 36.7746 194.85 35.7895 194.649C33.9453 194.306 32.0552 194.287 30.2045 194.594C28.585 194.824 26.9848 195.174 25.4166 195.64C23.1455 196.332 20.9522 197.257 18.872 198.402C18.1358 198.803 17.5773 199.138 17.1965 199.366L16.77 199.63L16.6177 199.711C16.6177 199.711 16.6583 199.671 16.7548 199.605L17.1711 199.321C17.5367 199.077 18.0952 198.732 18.8263 198.305C20.9004 197.138 23.0947 196.198 25.3709 195.502C26.9454 195.02 28.5545 194.658 30.1842 194.421C32.0565 194.096 33.9715 194.107 35.8402 194.451C36.8545 194.653 37.8255 195.031 38.7089 195.568C39.6344 196.132 40.4289 196.887 41.0394 197.782C41.6888 198.714 42.0426 199.82 42.0548 200.955C42.0353 201.542 41.8788 202.116 41.5979 202.631C41.3238 203.178 40.8462 203.595 40.2676 203.794C39.9707 203.878 39.6571 203.884 39.3573 203.811C39.0574 203.738 38.7816 203.588 38.5566 203.377C38.1279 202.964 37.8296 202.435 37.6985 201.854C37.4908 200.732 37.6698 199.572 38.2062 198.564C38.7099 197.608 39.3885 196.756 40.2067 196.051C40.9789 195.372 41.8195 194.774 42.7149 194.269C46.1776 192.278 49.7621 191.309 52.7933 191.309C55.1917 191.269 57.5629 191.82 59.6983 192.913C60.4706 193.304 61.1876 193.796 61.8308 194.375Z" fill="#FAFAFA"/>
<path d="M26.0614 153.822C24.5383 146.018 13.4952 145.729 11.5608 153.441C11.5303 153.558 11.4998 153.68 11.4744 153.802C8.62609 165.952 18.2475 201.853 20.8319 203.925C23.4162 205.996 25.9802 208.342 30.3974 206.509C32.9818 205.438 59.8152 181.722 59.8152 181.722C59.8152 181.722 66.0196 187.667 68.0911 187.149C70.1626 186.632 74.1128 180.549 74.1128 180.549C74.1128 180.549 77.9512 186.302 78.4335 186.388C78.6955 186.431 78.9643 186.4 79.2101 186.3C79.456 186.2 79.6694 186.034 79.827 185.82C79.9845 185.607 80.0799 185.354 80.1028 185.089C80.1257 184.825 80.0752 184.559 79.9567 184.321C79.449 183.545 74.5545 172.847 74.5545 172.847C74.5545 172.847 78.4081 172.43 77.6313 171.136C77.6313 171.136 77.5348 169.948 74.9302 170.176C72.3256 170.405 72.3763 167.429 67.5275 167.714C62.6787 167.998 52.6664 169.237 38.5871 180.041L32.0628 184.641L26.0614 153.822Z" fill="#FFBE9D"/>
<path d="M38.5718 180.043L38.7342 179.911L39.242 179.54L41.1459 178.113C43.5651 176.382 46.0845 174.795 48.6908 173.361C52.6773 171.152 56.9483 169.502 61.384 168.456C62.6634 168.187 63.9886 167.949 65.3645 167.791C66.0551 167.715 66.7506 167.654 67.4615 167.603C68.1854 167.55 68.9132 167.582 69.6295 167.7C70.368 167.83 71.0737 168.104 71.7061 168.507C72.3509 168.898 72.8941 169.441 73.544 169.776C73.8585 169.94 74.2053 170.032 74.5595 170.045C74.92 170.045 75.316 170 75.712 170.015C76.115 170.015 76.5151 170.084 76.895 170.218C77.106 170.278 77.2977 170.392 77.4509 170.548C77.6041 170.705 77.7136 170.899 77.7683 171.112V171.061C77.8717 171.224 77.9081 171.42 77.8699 171.609C77.8138 171.79 77.7018 171.948 77.55 172.061C77.2703 172.267 76.9579 172.425 76.6259 172.528C75.9646 172.738 75.2844 172.882 74.595 172.96L74.7017 172.782L78.144 180.23C78.7482 181.5 79.3474 182.805 80.0023 184.069C80.1079 184.226 80.1916 184.397 80.2511 184.577C80.2867 184.771 80.2867 184.971 80.2511 185.166C80.1859 185.562 79.9805 185.923 79.6723 186.181C79.5196 186.31 79.3423 186.407 79.1512 186.465C78.9601 186.524 78.7591 186.543 78.5604 186.521H78.4131C78.376 186.515 78.3401 186.503 78.3065 186.486L78.2354 186.435C78.1595 186.371 78.0882 186.301 78.0222 186.227C77.8953 186.09 77.7734 185.948 77.6617 185.8C76.3365 184.104 75.1637 182.348 73.9959 180.621H74.2142C73.2961 182.021 72.2993 183.367 71.2288 184.653C70.7045 185.289 70.1325 185.885 69.5178 186.435C69.3604 186.567 69.1928 186.689 69.0354 186.821C68.8619 186.937 68.6823 187.044 68.4972 187.141C68.3065 187.243 68.0966 187.305 67.8808 187.323C67.665 187.34 67.4479 187.313 67.2431 187.242C66.4737 186.997 65.7448 186.64 65.0802 186.181C64.4151 185.749 63.7855 185.287 63.1712 184.81C61.9526 183.851 60.8102 182.85 59.7237 181.825H59.8862C51.3767 189.309 44.0908 195.594 38.8815 199.951C36.2768 202.129 34.1901 203.82 32.7278 204.937C31.9967 205.495 31.423 205.911 31.0219 206.17C30.8236 206.31 30.6108 206.427 30.3872 206.521C30.3872 206.521 30.6106 206.409 31.0016 206.135C31.3925 205.861 31.9612 205.444 32.6821 204.876C34.1241 203.743 36.1956 202.032 38.7749 199.839C43.9588 195.452 51.2243 189.141 59.7186 181.642L59.7999 181.571L59.8811 181.647C60.9575 182.663 62.1049 183.678 63.3184 184.607C63.9226 185.079 64.5522 185.541 65.2072 185.963C65.8489 186.402 66.5521 186.744 67.2939 186.978C68.0555 187.263 68.7359 186.724 69.3248 186.222C69.9269 185.679 70.4885 185.094 71.0054 184.47C72.068 183.191 73.0579 181.854 73.9705 180.464L74.0771 180.297L74.1889 180.459C75.3515 182.18 76.5345 183.942 77.8394 185.623C77.9545 185.765 78.0713 185.902 78.1897 186.034C78.2507 186.095 78.3116 186.161 78.3725 186.212L78.4131 186.242C78.4131 186.242 78.4131 186.242 78.4131 186.288C78.4131 186.333 78.4131 186.369 78.4131 186.247H78.535C78.6999 186.266 78.867 186.251 79.026 186.203C79.1849 186.155 79.3323 186.075 79.4591 185.968C79.7232 185.761 79.8971 185.46 79.9444 185.128C79.9917 184.796 79.9088 184.458 79.7129 184.186C79.0376 182.891 78.4487 181.601 77.8445 180.327L74.4072 172.868L74.3361 172.711H74.5087C75.1791 172.634 75.8405 172.493 76.4838 172.29C76.7879 172.2 77.0745 172.059 77.3317 171.873C77.4404 171.793 77.522 171.681 77.5652 171.553C77.5874 171.429 77.562 171.3 77.4942 171.193V171.157C77.4408 170.993 77.3475 170.844 77.2225 170.725C77.0976 170.605 76.945 170.518 76.7783 170.472C76.4257 170.349 76.0548 170.287 75.6816 170.289C75.3008 170.289 74.9352 170.325 74.529 170.32C74.1288 170.304 73.7369 170.2 73.3816 170.015C72.6809 169.655 72.1478 169.111 71.5284 168.73C70.9211 168.346 70.2453 168.082 69.5381 167.954C68.1317 167.7 66.7049 167.918 65.3392 168.04C63.9734 168.162 62.6533 168.426 61.3789 168.69C56.9479 169.717 52.6776 171.343 48.6857 173.523C46.0779 174.943 43.5507 176.506 41.1155 178.205L39.1963 179.601L38.6885 179.956L38.5718 180.043Z" fill="#EB996E"/>
<path d="M29.651 193.374C29.651 193.374 29.5952 193.242 29.5444 192.998C29.4746 192.649 29.4322 192.294 29.4175 191.937C29.2858 189.562 29.9407 187.21 31.2808 185.245C31.4814 184.95 31.7019 184.668 31.9409 184.403C32.1135 184.22 32.215 184.123 32.2252 184.134C32.2354 184.144 31.9053 184.591 31.4382 185.347C30.2108 187.328 29.5733 189.617 29.6002 191.947C29.6104 192.816 29.6967 193.369 29.651 193.374Z" fill="#EB996E"/>
<path d="M18.5574 140.324C18.3086 140.492 9.37261 143.162 7.96621 152.322C6.5598 161.481 7.3874 177.434 7.3874 177.434L31.6263 175.769L24.6755 143.569L18.5574 140.324Z" fill="#F88821"/>
<path d="M70.0611 185.886C70.0205 185.886 70.0865 185.556 70.0611 185.053C70.0355 184.395 69.862 183.751 69.5533 183.169C69.2433 182.587 68.8081 182.081 68.2789 181.687C67.8728 181.392 67.5732 181.27 67.5884 181.225C67.8761 181.258 68.1505 181.365 68.3856 181.534C68.9796 181.909 69.4633 182.434 69.7869 183.057C70.1197 183.681 70.2759 184.383 70.2388 185.088C70.2448 185.365 70.1838 185.638 70.0611 185.886Z" fill="#EB996E"/>
<path d="M72.2897 183.17C72.1739 182.385 71.8932 181.634 71.4662 180.965C71.0391 180.297 70.4754 179.726 69.812 179.291C70.0517 179.332 70.277 179.434 70.467 179.586C70.9559 179.908 71.3711 180.33 71.6855 180.824C72.0043 181.318 72.2138 181.873 72.2999 182.454C72.3588 182.69 72.3553 182.936 72.2897 183.17Z" fill="#EB996E"/>
<path d="M72.29 177.383C72.29 177.357 72.5185 177.459 72.7978 177.708C73.1576 178.039 73.4452 178.44 73.6426 178.888C73.84 179.335 73.9431 179.818 73.9452 180.307C73.9452 180.678 73.8792 180.901 73.8488 180.896C73.7754 180.246 73.6237 179.606 73.3969 178.992C73.0919 178.414 72.7204 177.874 72.29 177.383Z" fill="#EB996E"/>
<path d="M28.6712 160.56C28.6293 160.568 28.5862 160.568 28.5443 160.56L28.1787 160.52C27.7103 160.462 27.2391 160.43 26.7672 160.423C25.03 160.405 23.3058 160.724 21.6899 161.363C19.2881 162.3 17.2237 163.938 15.7648 166.064C14.8967 167.292 14.4513 168.77 14.4954 170.273C14.5299 171.063 14.7639 171.832 15.1758 172.507C15.6064 173.191 16.2644 173.702 17.0341 173.949C17.7994 174.203 18.6321 174.164 19.3696 173.837C19.7168 173.671 20.0237 173.432 20.2692 173.136C20.5146 172.839 20.6928 172.493 20.7913 172.121C20.9595 171.38 20.9279 170.607 20.6999 169.882C20.4926 169.18 20.1663 168.519 19.7352 167.927C18.9688 166.901 18.0066 166.037 16.9041 165.385C15.8017 164.733 14.5809 164.307 13.3124 164.13C11.5896 163.904 9.83777 164.139 8.23516 164.81C7.801 164.995 7.37877 165.207 6.97092 165.445L6.65613 165.638L6.54443 165.693C7.04888 165.297 7.60377 164.969 8.19455 164.719C9.80491 163.998 11.5817 163.731 13.3327 163.947C14.6332 164.113 15.8873 164.537 17.0209 165.196C18.1545 165.854 19.1448 166.733 19.9332 167.78C20.3879 168.393 20.7316 169.08 20.9487 169.811C21.1919 170.58 21.2252 171.401 21.0451 172.187C20.9382 172.596 20.7434 172.977 20.4742 173.304C20.205 173.63 19.8679 173.893 19.4864 174.076C18.6848 174.43 17.7807 174.475 16.9478 174.203C16.1221 173.927 15.4195 173.37 14.9626 172.629C14.521 171.924 14.2659 171.119 14.2213 170.288C14.186 168.724 14.6619 167.191 15.5769 165.922C17.0705 163.765 19.1848 162.113 21.6392 161.185C23.2754 160.557 25.0208 160.264 26.7723 160.322C27.4116 160.338 28.0477 160.418 28.6712 160.56Z" fill="#FAFAFA"/>
<path d="M27.8435 147.41C27.6493 147.526 27.4434 147.621 27.2292 147.694C26.9853 147.802 26.7342 147.891 26.4777 147.963C26.1454 148.079 25.8063 148.174 25.4623 148.248C25.0492 148.351 24.6305 148.431 24.2082 148.486C23.7512 148.562 23.2638 148.588 22.7459 148.623C21.6241 148.659 20.5016 148.582 19.3949 148.395C18.2923 148.187 17.2138 147.867 16.1759 147.44C15.7037 147.227 15.2519 147.034 14.8558 146.806C14.478 146.607 14.1118 146.386 13.7591 146.146C13.4637 145.955 13.179 145.748 12.9062 145.526C12.6935 145.371 12.4916 145.201 12.302 145.019C12.1267 144.876 11.9667 144.717 11.8247 144.541C11.8602 144.496 12.5558 145.171 13.8556 145.993C14.2126 146.22 14.5822 146.427 14.9625 146.613C15.3886 146.838 15.8258 147.041 16.2724 147.222C18.3241 148.056 20.5273 148.452 22.7408 148.385C23.2486 148.354 23.7563 148.339 24.1828 148.273C24.6093 148.207 25.0459 148.146 25.4267 148.07C26.9347 147.75 27.8232 147.359 27.8435 147.41Z" fill="#FAFAFA"/>
<path d="M29.844 162.941C29.87 163.021 29.8887 163.102 29.8998 163.185C29.9303 163.368 29.9709 163.601 30.0166 163.891C30.1182 164.541 30.2552 165.414 30.4228 166.546C30.7528 168.846 31.2149 172.04 31.748 175.746V175.883H31.616L25.9497 176.279L12.8097 177.143L8.82915 177.376L7.74262 177.427H7.38721C7.50983 177.394 7.63593 177.375 7.76293 177.371L8.83931 177.275L12.8199 176.96L25.9548 176.015L31.616 175.635L31.4992 175.777C30.9915 172.065 30.5751 168.867 30.2705 166.567C30.1283 165.45 30.0166 164.536 29.9354 163.901C29.8998 163.607 29.8745 163.393 29.8541 163.185C29.839 163.105 29.8356 163.023 29.844 162.941Z" fill="#263238"/>
<g opacity="0.2">
<path opacity="0.2" d="M18.0903 140.069C17.8466 140.927 18.527 141.73 18.9687 142.501C19.8217 143.984 19.8674 145.776 19.9435 147.487C20.0004 150.632 20.4838 153.754 21.3804 156.768C22.3552 159.744 24.0307 162.562 26.5085 164.481C28.9862 166.4 32.3118 167.339 35.3429 166.552C38.374 165.765 40.9279 163.074 41.1869 159.952C41.4458 156.829 39.5621 154.047 38.4857 151.133C37.6531 148.889 37.2824 146.502 36.8052 144.151C36.3279 141.801 35.7186 139.44 34.4747 137.394C33.2308 135.347 31.2557 133.636 28.8897 133.205C26.5237 132.773 23.8429 133.89 22.8884 136.084" fill="black"/>
</g>
<path d="M29.7983 99.0753V101.771L29.6206 142.191C29.6206 146.883 33.6215 150.64 38.6429 150.625C43.7202 150.625 47.9089 146.756 48.0054 141.993C48.112 137.018 48.31 131.783 48.31 131.783C48.31 131.783 54.7379 130.834 56.2154 122.492C56.9516 118.349 56.8602 111.525 56.6114 105.945C56.5584 104.754 56.265 103.587 55.7487 102.512C55.2324 101.438 54.504 100.48 53.6074 99.6946C52.7108 98.9094 51.6645 98.3139 50.5316 97.944C49.3986 97.574 48.2025 97.4373 47.0153 97.5419L29.7983 99.0753Z" fill="#FFBE9D"/>
<path d="M54.6514 111.074C54.6488 111.354 54.537 111.622 54.3398 111.821C54.1426 112.02 53.8755 112.135 53.5953 112.14C53.4582 112.15 53.3206 112.131 53.1908 112.086C53.0609 112.041 52.9416 111.97 52.84 111.878C52.7385 111.785 52.6567 111.673 52.5998 111.548C52.5428 111.423 52.5119 111.287 52.5088 111.15C52.5114 110.871 52.6226 110.604 52.8189 110.406C53.0151 110.208 53.2809 110.094 53.5598 110.089C53.6969 110.078 53.8346 110.096 53.9647 110.141C54.0948 110.185 54.2145 110.255 54.3166 110.347C54.4187 110.44 54.501 110.551 54.5585 110.676C54.6161 110.801 54.6477 110.936 54.6514 111.074Z" fill="#263238"/>
<path d="M55.0729 109.488C54.9358 109.625 54.1387 109.005 52.981 108.98C51.8234 108.954 50.9501 109.523 50.8486 109.381C50.7877 109.315 50.9298 109.066 51.3005 108.807C51.8044 108.465 52.4023 108.287 53.0115 108.299C53.6109 108.31 54.1918 108.509 54.6718 108.868C55.0221 109.168 55.1389 109.421 55.0729 109.488Z" fill="#263238"/>
<path d="M43.7202 110.858C43.7176 111.138 43.6057 111.406 43.4083 111.604C43.211 111.802 42.9439 111.915 42.6642 111.919C42.5275 111.929 42.3903 111.911 42.2608 111.866C42.1313 111.821 42.0122 111.751 41.9107 111.659C41.8092 111.567 41.7273 111.455 41.6701 111.331C41.6129 111.206 41.5814 111.071 41.5776 110.934C41.5802 110.655 41.6913 110.388 41.8874 110.189C42.0835 109.99 42.3493 109.875 42.6286 109.868C42.7661 109.858 42.9043 109.875 43.0347 109.92C43.1652 109.965 43.2851 110.036 43.3872 110.129C43.4894 110.221 43.5716 110.334 43.6288 110.459C43.6861 110.585 43.7172 110.72 43.7202 110.858Z" fill="#263238"/>
<path d="M43.7252 109.5C43.5881 109.637 42.7859 109.023 41.6334 108.992C40.4808 108.962 39.6025 109.536 39.5009 109.394C39.44 109.328 39.5822 109.079 39.9528 108.815C40.4579 108.475 41.055 108.297 41.6638 108.307C42.2655 108.314 42.8492 108.513 43.3292 108.876C43.6744 109.185 43.7912 109.439 43.7252 109.5Z" fill="#263238"/>
<path d="M47.7617 118.135C48.3727 117.954 49.0037 117.85 49.6403 117.825C49.9399 117.825 50.2191 117.749 50.2699 117.551C50.3001 117.247 50.2382 116.941 50.0922 116.673C49.8231 115.952 49.549 115.2 49.2595 114.413C48.107 111.194 47.2743 108.554 47.4063 108.508C47.5383 108.463 48.5741 111.047 49.7267 114.251L50.5238 116.52C50.7026 116.88 50.7494 117.292 50.6558 117.683C50.6091 117.787 50.5391 117.88 50.451 117.953C50.363 118.026 50.2593 118.078 50.1481 118.104C49.9815 118.143 49.8113 118.163 49.6403 118.165C49.0151 118.23 48.3845 118.219 47.7617 118.135Z" fill="#263238"/>
<path d="M48.315 131.802C44.3678 131.797 40.4999 130.693 37.145 128.613C37.145 128.613 39.7598 134.406 48.1424 133.772L48.315 131.802Z" fill="#EB996E"/>
<path d="M47.2237 120.907C47.01 120.626 46.728 120.404 46.4045 120.263C46.0811 120.122 45.7269 120.065 45.3756 120.099C45.1203 120.118 44.8714 120.188 44.6437 120.305C44.416 120.422 44.2143 120.583 44.0504 120.78C43.8932 120.969 43.7977 121.202 43.7768 121.447C43.7559 121.692 43.8107 121.938 43.9337 122.151C44.1161 122.365 44.3593 122.52 44.6313 122.593C44.9033 122.667 45.1912 122.656 45.4568 122.562C46.0053 122.378 46.5124 122.088 46.9496 121.709C47.0806 121.619 47.1942 121.505 47.2847 121.374C47.3258 121.309 47.3477 121.235 47.3477 121.158C47.3477 121.082 47.3258 121.007 47.2847 120.942" fill="#EB996E"/>
<path d="M44.3501 118.871C44.5379 118.871 44.5176 120.115 45.5788 121.024C46.6399 121.933 47.9702 121.816 47.9753 121.994C47.9753 122.07 47.6757 122.232 47.1121 122.238C46.3769 122.236 45.6661 121.973 45.1066 121.496C44.568 121.042 44.229 120.395 44.1622 119.694C44.1216 119.196 44.2688 118.861 44.3501 118.871Z" fill="#263238"/>
<path d="M44.1063 104.979C43.9845 105.289 42.837 105.122 41.4814 105.259C40.1258 105.396 39.0189 105.766 38.8463 105.462C38.7701 105.325 38.9631 105.035 39.4099 104.741C40.0014 104.37 40.6737 104.147 41.3697 104.091C42.0592 104.024 42.7547 104.12 43.4006 104.37C43.9083 104.583 44.1571 104.832 44.1063 104.979Z" fill="#263238"/>
<path d="M54.7075 106.137C54.4993 106.396 53.692 106.112 52.7527 106.081C51.8134 106.051 50.9858 106.223 50.803 105.949C50.7269 105.812 50.8589 105.553 51.2143 105.309C51.6952 105.02 52.2515 104.88 52.8123 104.908C53.373 104.936 53.9126 105.13 54.3622 105.467C54.6922 105.741 54.7988 105.995 54.7075 106.137Z" fill="#263238"/>
<path d="M40.2828 96.347C42.5473 99.2969 40.2828 103.521 37.7137 106.232C35.1446 108.944 32.0627 112.082 32.7989 115.722C33.657 119.946 39.4705 122.602 38.653 126.831C38.3535 128.354 37.1298 129.7 37.1603 131.274C37.1603 134.112 40.8667 135.457 41.9482 138.077C43.4307 141.677 39.4857 145.317 39.4603 149.207C39.4603 151.415 40.7195 153.461 40.8109 155.67C40.9886 160.194 35.6727 163.555 31.2757 162.489C26.8788 161.422 23.8274 157.137 22.8322 152.705C21.8371 148.272 22.4921 143.688 23.1572 139.214C22.7358 141.124 19.8417 141.509 18.415 140.174C16.9883 138.839 16.7954 136.62 17.0949 134.696C17.8464 129.847 20.9841 125.719 22.4514 121.043C23.736 116.951 23.7005 112.584 24.2386 108.35C24.7768 104.115 26.0462 99.6574 29.2651 96.8243C32.4841 93.9912 38.0894 93.5901 40.7449 96.9563" fill="#263238"/>
<path d="M28.8188 160.83C28.8514 160.772 28.8869 160.716 28.9254 160.662C29.0016 160.546 29.1082 160.383 29.2453 160.185C30.2613 158.573 30.8291 156.718 30.8903 154.813C30.9524 153.276 30.6715 151.745 30.0678 150.33C29.4027 148.756 28.2298 147.284 26.991 145.679C26.3369 144.86 25.7381 143.999 25.1987 143.1C24.6372 142.143 24.2359 141.1 24.0106 140.013C23.7632 138.844 23.862 137.629 24.2949 136.515C24.5361 135.949 24.8804 135.432 25.3104 134.992C25.7564 134.561 26.2369 134.167 26.7473 133.814C27.7627 133.093 28.7782 132.367 29.3519 131.24C29.8636 130.072 29.9464 128.761 29.5855 127.538C28.9762 125 27.2093 123.02 26.0771 120.811C25.4756 119.732 25.1169 118.535 25.0261 117.303C24.9747 116.117 25.1989 114.935 25.681 113.85C26.6106 111.893 27.953 110.161 29.6159 108.773C31.1391 107.417 32.6115 106.265 33.8351 105.066C34.9656 104.022 35.907 102.791 36.6175 101.426C37.1501 100.392 37.4744 99.2641 37.572 98.1054C37.6294 97.3738 37.5554 96.6378 37.3537 95.9323C37.2115 95.4246 37.0897 95.2113 37.11 95.2012C37.231 95.4298 37.3296 95.6695 37.4045 95.9171C37.6311 96.6248 37.7224 97.3689 37.6735 98.1104C37.5984 99.287 37.284 100.436 36.7495 101.487C36.0442 102.876 35.1028 104.132 33.9671 105.198C32.7435 106.417 31.2559 107.58 29.7632 108.935C28.1311 110.318 26.8151 112.036 25.9044 113.972C25.4421 115.023 25.2267 116.166 25.2748 117.313C25.3652 118.506 25.7115 119.667 26.2903 120.714C26.859 121.801 27.5647 122.842 28.2349 123.933C28.9489 125.027 29.4869 126.227 29.8292 127.488C30.205 128.772 30.115 130.147 29.5753 131.372C28.9813 132.575 27.8693 133.326 26.8843 134.037C26.3852 134.381 25.9148 134.765 25.4779 135.185C25.0653 135.6 24.7315 136.087 24.4929 136.622C24.0798 137.69 23.9846 138.856 24.2188 139.978C24.4356 141.048 24.8231 142.077 25.3662 143.024C25.901 143.908 26.4929 144.756 27.1382 145.563C28.3618 147.157 29.5398 148.665 30.21 150.274C30.8165 151.718 31.089 153.28 31.0071 154.844C30.931 156.768 30.3267 158.633 29.2605 160.236C29.1133 160.444 28.9914 160.591 28.9153 160.698C28.8867 160.745 28.8544 160.789 28.8188 160.83Z" fill="#455A64"/>
<path d="M91.081 170.425L71.8381 204.026L44.5884 204.971V207.966H124.195L145.86 172.476C146.036 172.17 146.13 171.823 146.132 171.47C146.134 171.117 146.043 170.769 145.869 170.461C145.695 170.154 145.444 169.897 145.141 169.716C144.837 169.535 144.492 169.436 144.139 169.43H92.8276C92.4751 169.43 92.1287 169.522 91.8225 169.696C91.5163 169.87 91.2607 170.122 91.081 170.425Z" fill="#263238"/>
<path d="M115.183 188.362C113.975 190.241 112.137 191.2 111.03 190.5C109.923 189.799 110.04 187.712 111.248 185.834C112.456 183.955 114.294 182.995 115.401 183.696C116.508 184.397 116.391 186.484 115.183 188.362Z" fill="#E0E0E0"/>
</svg>
