<svg width="121" height="146" viewBox="0 0 121 146" fill="none" xmlns="http://www.w3.org/2000/svg">
<path d="M26.1578 102.361C23.7716 102.366 21.4261 101.743 19.3567 100.555C17.2873 99.3666 15.5666 97.6552 14.3675 95.5922C13.1683 93.5292 12.5328 91.1871 12.5246 88.801C12.5164 86.4148 13.1359 84.0684 14.321 81.9972L53.2229 13.9084C54.3952 11.8248 56.1006 10.0904 58.1641 8.883C60.2276 7.67561 62.575 7.03865 64.9658 7.03741L65.013 7.02932C67.393 7.01165 69.7352 7.62481 71.8013 8.80639C73.8674 9.98798 75.5836 11.6958 76.7752 13.7561L116.292 81.495C117.495 83.5577 118.134 85.9006 118.145 88.2885C118.156 90.6764 117.538 93.0251 116.354 95.0987C115.17 97.1723 113.461 98.8977 111.399 100.102C109.336 101.306 106.994 101.946 104.606 101.957L26.1874 102.307L26.1578 102.361Z" fill="#ED2A3A"/>
<path d="M26.1571 102.358L26.9771 102.324L29.4091 102.286L38.7594 102.199L73.1307 101.969L96.8624 101.786L103.375 101.748C104.475 101.781 105.576 101.722 106.667 101.572C107.764 101.406 108.835 101.099 109.852 100.657C111.97 99.7339 113.814 98.2818 115.208 96.44C116.603 94.5983 117.499 92.4288 117.813 90.1402C118.141 87.7614 117.809 85.3381 116.854 83.1348C116.334 82.0253 115.747 80.9482 115.097 79.9096C114.465 78.8326 113.843 77.7541 113.21 76.6677C110.672 72.3295 108.089 67.9149 105.46 63.4239C100.193 54.4079 94.7452 45.0732 89.1704 35.5076C86.4069 30.7224 83.6564 26.0126 80.9188 21.3784C79.5478 19.0487 78.1817 16.7473 76.8738 14.4456C75.8428 12.4701 74.3332 10.7844 72.4831 9.54244C70.6329 8.30049 68.501 7.54187 66.2822 7.33586C64.0633 7.12985 61.8282 7.48302 59.781 8.36311C57.7338 9.24321 55.9397 10.6222 54.5626 12.3741C53.8378 13.3608 53.1845 14.3981 52.6078 15.4781C51.3962 17.6288 50.1903 19.7365 48.9899 21.8011L23.6517 66.0454C20.0699 72.3526 16.7386 78.0242 13.938 83.051C12.7804 85.4584 12.3734 88.1583 12.7699 90.7999C13.1149 93.0185 13.9987 95.1186 15.3438 96.9163C16.4093 98.3554 17.75 99.5686 19.2881 100.485C20.4225 101.149 21.6463 101.645 22.9219 101.961C23.7091 102.151 24.5104 102.277 25.318 102.337C25.8565 102.361 26.1431 102.39 26.1431 102.39C26.1431 102.39 25.8694 102.437 25.3072 102.387C23.3283 102.304 21.3929 101.779 19.6424 100.852C17.8919 99.9257 16.3703 98.6199 15.1885 97.0303C13.8087 95.2164 12.897 93.0904 12.5339 90.8404C12.1129 88.1478 12.5137 85.3907 13.684 82.9294C16.4577 77.8586 19.7574 72.173 23.3314 65.8769L48.5732 21.5811L52.1895 15.2486C52.7686 14.1465 53.4321 13.0908 54.174 12.091C54.9755 11.0722 55.9168 10.1717 56.9699 9.41598C58.5755 8.25379 60.4118 7.44985 62.3549 7.05852C64.2979 6.66718 66.3023 6.69757 68.2326 7.14763C70.1629 7.59769 71.974 8.45694 73.5436 9.66727C75.1132 10.8776 76.4046 12.4108 77.3306 14.1633C78.6951 16.4552 80.0612 18.7566 81.3755 21.096C84.1159 25.746 86.8707 30.4809 89.6272 35.2253C95.2114 44.7892 100.64 54.1272 105.918 63.151C108.543 67.6557 111.12 72.0713 113.649 76.398L115.535 79.6305C116.193 80.6876 116.79 81.7823 117.321 82.9091C118.303 85.1924 118.642 87.7008 118.302 90.1631C117.973 92.528 117.043 94.769 115.6 96.6714C114.157 98.5739 112.25 100.074 110.062 101.029C109.006 101.477 107.898 101.792 106.763 101.963C105.65 102.116 104.526 102.176 103.403 102.141L96.8988 102.168L73.1588 102.246L38.7882 102.31L29.4422 102.31L27.0116 102.299L26.1571 102.358Z" fill="#263238"/>
<path d="M65.033 11.1135C63.3503 11.0969 61.6939 11.5309 60.2355 12.3703C58.777 13.2097 57.5698 14.424 56.7388 15.8873L17.8369 83.9761C17.0175 85.4284 16.5916 87.0695 16.6013 88.737C16.611 90.4045 17.056 92.0405 17.8922 93.4832C18.7285 94.9259 19.927 96.1251 21.3691 96.9623C22.8112 97.7995 24.4469 98.2456 26.1144 98.2564V98.2564L104.596 97.9345C106.27 97.9224 107.913 97.4712 109.358 96.6261C110.804 95.781 112.003 94.5714 112.835 93.1182C113.668 91.665 114.104 90.0189 114.102 88.3442C114.099 86.6695 113.657 85.0248 112.82 83.5742L73.2771 15.8495C72.4439 14.4021 71.2421 13.2013 69.794 12.3693C68.3458 11.5374 66.7031 11.1041 65.033 11.1135Z" fill="white"/>
<path d="M59.6982 80.287C59.6943 79.6088 59.8278 78.9369 60.0908 78.3118C60.3538 77.6867 60.7408 77.1214 61.2284 76.65C61.7161 76.1787 62.2942 75.8111 62.9278 75.5694C63.5615 75.3278 64.2376 75.2171 64.9152 75.2441C65.5758 75.2386 66.2309 75.3634 66.8433 75.6111C67.4557 75.8589 68.0133 76.2248 68.4842 76.688C68.9552 77.1513 69.3303 77.7027 69.5881 78.3109C69.8459 78.9191 69.9814 79.5721 69.9869 80.2327C69.9923 80.8933 69.8676 81.5484 69.6199 82.1608C69.3722 82.7732 69.0062 83.3308 68.543 83.8017C68.0798 84.2727 67.5283 84.6477 66.9201 84.9056C66.3119 85.1634 65.6589 85.2989 64.9983 85.3044C64.3177 85.336 63.6376 85.2299 62.9989 84.9926C62.3602 84.7552 61.7759 84.3914 61.2811 83.923C60.7863 83.4545 60.391 82.8911 60.119 82.2663C59.8471 81.6415 59.7039 80.9683 59.6982 80.287V80.287ZM59.8007 39.4661L69.4155 39.3914L68.0508 69.7907L61.6189 69.8443L59.8007 39.4661Z" fill="#ED2A3A"/>
<path d="M56.7522 102.188L55.7257 143.01L72.7661 143.01L73.293 102.037L56.7522 102.188Z" fill="#455A64"/>
<path d="M14 143H114" stroke="#455A64" stroke-opacity="0.4"/>
</svg>
