<svg width="100" height="81" viewBox="0 0 148 81" fill="none" xmlns="http://www.w3.org/2000/svg">
    <path
        d="M3.50098 32.6175V26.9186H15.4371C23.0662 26.9186 26.1608 24.0911 26.1608 17.7663V0H31.8597V17.7663C31.8597 27.8597 26.7911 32.6175 15.4371 32.6175H3.50098Z"
        fill="#F1840E" />
    <path
        d="M66.1758 0H71.7389V18.2171C71.7389 28.3105 66.7579 33.0684 54.1083 33.0684C41.4588 33.0684 36.5215 28.3105 36.5215 18.2171V0H42.3998V18.2171C42.3998 24.7695 45.3149 27.4614 54.2878 27.4614C63.2607 27.4614 66.1758 24.7695 66.1758 18.2171V0Z"
        fill="#F1840E" />
    <path
        d="M76.8945 32.6175V26.9186H101.344C104.395 26.9186 106.102 25.216 106.102 22.6554C106.102 19.8716 104.395 18.436 101.344 18.436H86.3576C80.2123 18.436 76.3955 14.5317 76.3955 9.14796C76.3955 3.76423 79.9453 0 86.4495 0H109.871V5.69887H86.4495C83.8452 5.69887 82.322 7.22645 82.322 9.69071C82.322 12.155 83.8933 13.6388 86.4057 13.6388H101.344C107.941 13.6388 111.486 16.7333 111.486 23.0625C111.486 28.5381 108.168 32.6175 101.344 32.6175H76.8945Z"
        fill="#F1840E" />
    <path d="M126.823 32.6175V5.69887H114.44V0H144.904V5.69887H132.522V32.6175H126.823Z"
        fill="#F1840E" />
    <path
        d="M98.6709 55.8507C102.913 55.8507 106.353 52.2586 106.353 47.8276C106.353 43.3966 102.913 39.8046 98.6709 39.8046C94.4285 39.8046 90.9893 43.3966 90.9893 47.8276C90.9893 52.2586 94.4285 55.8507 98.6709 55.8507Z"
        fill="#F1840E" />
    <path
        d="M38.5571 80.3576L32.8801 59.488L24.4675 78.8082C23.8941 80.0731 23.08 80.7691 21.8107 80.7691C20.5413 80.7691 19.6878 80.0731 19.1538 78.8082L10.7806 59.488L5.10359 80.3576H0L7.63789 52.4235C8.00556 50.9966 8.82406 50.3007 10.2116 50.3007C11.3146 50.3007 12.3344 50.9134 12.8246 52.0558L21.9726 73.048L31.1206 52.0558C31.6108 50.9134 32.5081 50.3007 33.6111 50.3007C34.8761 50.3007 35.6946 50.9966 36.1016 52.4235L43.6957 80.3576H38.5484H38.5571Z"
        fill="#30375A" />
    <path
        d="M59.0546 80.3576C50.7645 80.3576 44.6367 73.8227 44.6367 65.2044C44.6367 56.586 50.7645 50.6639 59.0546 50.6639H66.2854C74.86 50.6639 80.8259 56.586 80.8259 65.2044C80.8259 73.8227 74.7418 80.3576 66.2854 80.3576H59.0546ZM66.2854 75.1709C71.7567 75.1709 75.6391 71.0477 75.6391 65.4495C75.6391 59.8513 71.7611 55.8507 66.2854 55.8507H59.0546C53.7453 55.8507 49.8235 59.8119 49.8235 65.4495C49.8235 71.0871 53.7015 75.1709 59.0546 75.1709H66.2854Z"
        fill="#30375A" />
    <path
        d="M79.0669 50.6639H85.396L98.8729 73.5338L112.31 50.6639H118.272L101.158 79.0883C100.545 80.1081 99.7264 80.7647 98.6672 80.7647C97.5248 80.7647 96.7456 80.1125 96.1329 79.0883L79.0625 50.6639H79.0669Z"
        fill="#30375A" />
    <path
        d="M121.453 80.3576V50.6639H147.96V55.8507H126.6V75.1665H148V80.3532H121.453V80.3576ZM130.395 67.4498V63.0815H146.853V67.4498H130.395Z"
        fill="#30375A" />
</svg>