<svg width="375" height="260" viewBox="0 0 375 260" fill="none" xmlns="http://www.w3.org/2000/svg">
<path d="M375 0H0V260H375V0Z" fill="url(#paint0_linear_837_7677)"/>
<g style="mix-blend-mode:color-burn" opacity="0.3">
<path d="M173.281 0L174.271 6.43903L173.685 0H173.281ZM120.039 0H118.281L132.109 24.7399L120.039 0ZM139.674 0H136.237L157.721 51.4403L139.674 0ZM148.711 0H146.51L158.151 33.652L148.711 0ZM235.951 0L216.224 62.9514L240.169 0H235.951ZM178.255 0L185.938 74.8312L182.956 0H178.255ZM228.958 0L226.888 8.32757L229.492 0H228.958ZM202.513 0L200.521 32.1502L204.531 0H202.513ZM0 207.74V210.617L73.8021 180.94L0 207.74ZM0 163.907V166.749L90.7943 151.623L0 163.907ZM0 127.558V128.052L16.4974 128.538L0 127.558ZM93.2031 0H90.2214L119.362 38.0676L93.2031 0ZM0 122.998V124.914L63.3984 128.043L0 122.998ZM0 152.468V153.368L29.9479 150.364L0 152.468ZM83.112 12.2395L130.208 65.0018L96.0677 22.7344L77.9036 0H74.8828L85 11.4751L83.112 12.2395ZM253.646 0L242.188 26.4666L255.469 0H253.646ZM0 179.528V181.867L70.4427 164.339L0 179.528ZM375 190.077V189.106L347.24 181.579L375 190.077ZM375 186.138V183.917L310.104 167.918L375 186.138ZM369.792 0L260.677 84.3998L375 3.26448V0H369.792ZM354.414 64.2824L289.232 93.8875L343.008 71.7016L302.266 89.6878L375 60.5682V57.5556L355.964 65.9551L354.414 64.2824ZM375 92.8443V92.3317L359.792 96.2257L375 92.8443ZM282.318 0L271.484 16.898L283.607 0H282.318ZM17.8385 95.0026L27.7995 97.2239L0 90.0834V93.5727L89.2188 112.539L17.8385 95.0026ZM375 129.545V127.746L314.909 131.128L375 129.545ZM375 135.004V132.953L306.237 134.896L375 135.004ZM375 159.843V159.051L349.154 156.245L375 159.843ZM375 100.111V97.5387L295.82 114.94L375 100.111ZM300.208 0H296.797L265.247 41.9076L300.208 0ZM361.576 0H356.771L303.685 44.8214L361.576 0ZM322.005 0H318.411L281.953 40.145L322.005 0ZM236.693 75.11L287.604 11.2593L283.568 9.80243L236.693 75.11ZM375 46.0175V44.066L331.628 66.5486L375 46.0175ZM375 73.797V72.4211L338.086 85.8207L375 73.797ZM375 20.3873V17.4195L321.289 53.158L375 20.3873ZM375 110.507V109.958L357.552 112.656L375 110.507ZM0 167.738V169.168L45.1953 160.886L0 167.738ZM246.094 259H247.109L239.87 244.287L246.094 259ZM225.495 259H226.172L222.812 248.433L225.495 259ZM212.331 259H215.924L203.385 202.569L212.331 259ZM286.458 259H292.76L227.37 182.208L286.458 259ZM299.609 259H303.385L261.875 215.384L299.609 259ZM169.401 259L170.924 248.28L168.685 259H169.401ZM155.768 259L171.875 198.387L151.784 259H155.768ZM189.375 56.0627L190.365 0H186.849L189.375 56.0627ZM204.193 259H204.583L203.685 252.705L204.193 259ZM375 223.594V220.753L309.401 191.606L375 223.594ZM375 152.99V152.522L359.505 151.398L375 152.99ZM335.586 259H338.19L307.292 234.296L335.586 259ZM375 131.874V130.813L339.271 132.306L375 131.874ZM375 205.617V204.142L335.065 190.05L375 205.617ZM375 173.962V173.233L352.253 169.069L375 173.962ZM358.542 259H365.885L277.526 198.567L358.542 259ZM373.372 243.109L374.961 244.072V238.226L257.539 174.375L373.372 243.109ZM128.685 259L142.643 229.791L126.628 259H128.685ZM91.2109 259L103.229 243.532L89.9349 259H91.2109ZM0 36.1521V39.2637L66.7057 72.3491L0 36.1521ZM0 67.2321V68.4192L31.4323 79.1389L0 67.2321ZM0 145.472V146.146L22.7214 144.707L0 145.472ZM6.79688 0H1.04167L70.5469 48.6704L6.79688 0ZM0 111.127V112.161L33.4766 116.01L0 111.127ZM45.7292 0H40.2734L103.594 55.9188L45.7292 0ZM0 10.9715V15.6569L83.6589 67.4479L0 10.9715ZM28.9453 39.4345L107.669 85.6768L31.901 37.1143L28.9453 39.4345ZM66.4062 259L77.5911 247.489L65.3516 259H66.4062ZM119.792 259L126.302 246.931L118.984 259H119.792ZM36.1979 259H40.8854L92.2266 215.761L36.1979 259ZM81.1328 259H86.0547L134.115 201.265L81.1328 259ZM0 55.2443V58.5538L81.0026 90.8299L0 55.2443ZM0 195.149V196.822L46.4453 181.453L0 195.149ZM15.6901 259H19.7656L64.8177 225.627L15.6901 259ZM14.974 222.173L103.802 177.721L17.2266 217.227L0 225.015V227.938L13.8672 221.058L14.974 222.173ZM0 243.64V246.931L65.3776 207.883L0 243.64Z" fill="#C3C3C3"/>
</g>
<g style="mix-blend-mode:color-burn" opacity="0.5">
<path d="M0 71.8275V72.9607L33.0729 81.1084L0 71.8275ZM0 34.7132V36.1881L33.9583 51.2604L0 34.7132ZM0 52.6454V52.7083L1.6276 53.2749L0 52.6454ZM0 14.0651V19.0293L99.2318 72.9876L0 14.0651ZM0 198.845V201.319L59.349 174.339L0 198.845ZM0 237.237V238.316L18.9714 225.726L0 237.237ZM17.1354 0H11.9922L74.1276 42.5012L17.1354 0ZM0 211.58V211.849L5.95052 208.756L0 211.58ZM0 128.16V128.969L27.0182 127.441L0 128.16ZM0 157.378V159.033L51.0677 147.81L0 157.378ZM0 122.665V123.798L37.9297 122.737L0 122.665ZM0 196.858V198.612L42.9688 179.672L0 196.858ZM332.161 0L307.422 20.8459L334.427 0H332.161ZM375 240.411V235.771L288.06 184.699L375 240.411ZM353.385 0L342.031 8.4175L354.414 0H353.385ZM75.3646 0H73.5026L93.75 21.3225L75.3646 0ZM81.7969 259L125.534 198.009L76.9401 259H81.7969ZM0 253.955V259H1.39323L95.3255 186.309L0 253.955ZM88.737 0H83.5286L137.279 63.1133L88.737 0ZM375 31.3048V27.7076L292.969 68.7609L375 31.3048ZM159.102 0L167.422 37.4561L161.458 0H159.102ZM287.214 0L254.661 39.1018L290.547 0H287.214ZM207.253 42.726L221.354 0H218.568L207.253 42.726ZM243.997 3.15656L245.742 0H245.508L243.997 3.15656ZM375 201.66V199.484L321.615 178.242L375 201.66ZM375 92.7094V90.659L309.31 101.622L375 92.7094ZM375 133.817V132.872L343.815 131.299L375 133.817ZM375 166.515V164.411L311.302 150.867L375 166.515ZM375 245.951V242.812L318.294 207.74L375 245.951ZM14.1406 259L41.1589 236.167L11.7188 259H14.1406ZM375 88.7075V88.4467L366.745 89.9306L375 88.7075ZM375 48.6075V46.8808L330.729 64.75L375 48.6075ZM341.328 30.7742L375 12.3565V10.6568L341.328 30.7742ZM371.094 259H374.375L334.844 231.319L371.094 259ZM375 76.9806V75.6496L334.948 85.6139L375 76.9806ZM375 61.2157V60.856L365.182 64.1115L375 61.2157ZM375 220.672V219.017L339.648 201.489L375 220.672ZM184.479 259H186.797L185.13 222.003L184.479 259ZM331.276 259H334.87L293.203 222.182L331.276 259ZM136.966 259L151.289 213.288L133.945 259H136.966ZM53.138 259L68.5286 242.048L51.6146 259H53.138ZM73.5807 259H75.1302L89.5703 239.827L73.5807 259ZM170.677 259L171.094 252.12L170.234 259H170.677ZM283.177 259H284.297L273.333 244.674L283.177 259ZM298.698 259H302.76L259.727 210.743L298.698 259ZM191.927 259H195.729L189.505 198.36L191.927 259ZM235.99 259H238.073L225.052 227.83L235.99 259ZM226.966 259H227.552L224.518 250.223L226.966 259Z" fill="#C3C3C3"/>
</g>
<path d="M126.927 70.3333C133.19 68.4974 134.388 67.3385 136.458 61.2188C137.044 67.1432 137.994 68.1198 143.932 68.9141C137.669 70.737 136.471 71.8958 134.401 78.0287C133.815 72.1302 132.812 71.1667 126.927 70.3333Z" fill="white"/>
<path d="M53.1904 169.111C57.0967 167.965 57.8649 167.249 59.154 163.395C59.5186 167.105 60.1175 167.717 63.8285 168.212C59.9222 169.358 59.167 170.074 57.8779 173.915C57.5003 170.217 56.9144 169.605 53.1904 169.111Z" fill="white"/>
<path d="M342 63.3854C347.742 61.7057 348.849 60.651 350.737 55C351.284 60.4427 352.143 61.3281 357.599 62.0573C351.857 63.737 350.75 64.7917 348.862 70.4427C348.276 65 347.404 64.1146 342 63.3854Z" fill="white"/>
<path d="M116 40.1875C124.359 37.7526 125.961 36.2812 128.708 28C129.503 35.9167 130.753 37.2057 138.695 38.2734C130.336 40.7083 128.734 42.1797 125.987 50.4609C125.193 42.5443 123.93 41.2552 116 40.1875Z" fill="white"/>
<path d="M16 91.1797C18.8776 90.3464 19.4245 89.8776 20.375 87C20.6484 89.7214 21.0781 90.1641 23.7995 90.5286C20.9349 91.362 20.375 91.8307 19.4375 94.7083C19.2161 92 18.7344 91.5443 16 91.1797Z" fill="white"/>
<path d="M10 217.042C17.5651 214.828 19.0234 213.435 21.5104 206C22.2266 213.161 23.3724 214.346 30.5599 215.297C22.9818 217.51 21.5234 218.904 19.0365 226.352C18.3203 219.177 17.1875 218.018 10 217.042Z" fill="white"/>
<path d="M332 128.089C341.661 125.263 343.51 123.492 346.687 114C347.599 123.115 349.057 124.638 358.224 125.862C348.562 128.688 346.714 130.458 343.536 139.951C342.625 130.81 341.167 129.312 332 128.089Z" fill="white"/>
<path d="M181.692 91.2956C188.411 89.3424 189.7 88.1055 191.901 81.5039C192.539 87.8581 193.554 88.8997 199.922 89.7591C193.203 91.7122 191.914 92.9492 189.713 99.5508C189.075 93.1966 188.06 92.1549 181.692 91.2956Z" fill="white"/>
<path d="M212 29.6641C219.318 27.5286 220.724 26.1875 223.12 19C223.81 25.9271 224.917 27.0599 231.857 27.9844C224.539 30.1198 223.133 31.4609 220.737 38.6484C220.047 31.7344 218.94 30.5755 212 29.6641Z" fill="white"/>
<defs>
<linearGradient id="paint0_linear_837_7677" x1="465.135" y1="37.1426" x2="-81.6609" y2="45.8991" gradientUnits="userSpaceOnUse">
<stop stop-color="#ED2A3A"/>
<stop offset="1" stop-color="#F7983B"/>
</linearGradient>
</defs>
</svg>
