<svg width="301" height="109" viewBox="0 0 301 109" fill="none" xmlns="http://www.w3.org/2000/svg">
<path d="M300.598 39.5947C300.795 38.4601 300.718 37.295 300.374 36.1961C300.029 35.0973 299.428 34.0963 298.62 33.2764C297.811 32.4564 296.819 31.8412 295.725 31.4817C294.631 31.1222 293.467 31.0288 292.33 31.2093L260.572 34.2431C259.643 34.3925 258.692 34.3174 257.798 34.0243C256.904 33.7312 256.093 33.2285 255.433 32.5582C254.773 31.8879 254.283 31.0694 254.004 30.1711C253.724 29.2728 253.664 28.3206 253.827 27.3942C254.168 25.2662 255.19 23.3062 256.74 21.8083C258.289 20.3105 260.283 19.3556 262.421 19.0869L266.809 18.6572C269.427 18.3247 271.868 17.1529 273.764 15.3173C275.661 13.4817 276.912 11.0811 277.33 8.47491C277.526 7.34031 277.449 6.17521 277.105 5.07633C276.761 3.97745 276.16 2.9765 275.351 2.15657C274.543 1.33663 273.551 0.721384 272.457 0.36188C271.363 0.00237697 270.199 -0.0910006 269.062 0.0894971L47.1215 20.9228C44.4942 21.2621 42.0485 22.4465 40.1531 24.2972C38.2577 26.148 37.0155 28.5648 36.6137 31.1832C36.4172 32.3178 36.4942 33.4829 36.8383 34.5818C37.1823 35.6807 37.7836 36.6816 38.592 37.5016C39.4005 38.3215 40.3929 38.9368 41.4868 39.2963C42.5808 39.6558 43.7447 39.7492 44.8819 39.5687L49.6215 39.1129C50.5503 38.9636 51.5014 39.0386 52.3954 39.3318C53.2893 39.6249 54.1002 40.1276 54.7603 40.7979C55.4204 41.4682 55.9106 42.2866 56.19 43.185C56.4694 44.0833 56.5298 45.0354 56.3663 45.9619C56.0253 48.0899 55.0034 50.0499 53.4539 51.5477C51.9044 53.0456 49.9108 54.0005 47.7725 54.2692L11.0538 57.7848C8.43536 58.1173 5.99511 59.2891 4.09848 61.1247C2.20184 62.9603 0.950888 65.361 0.532946 67.9671C0.333425 69.1022 0.40828 70.2685 0.751268 71.3688C1.09426 72.4691 1.69542 73.4714 2.50461 74.292C3.31379 75.1127 4.30752 75.7279 5.40286 76.0863C6.4982 76.4448 7.66338 76.536 8.80117 76.3525L27.9939 74.5166C28.9227 74.3673 29.8738 74.4423 30.7678 74.7354C31.6617 75.0285 32.4726 75.5312 33.1327 76.2015C33.7928 76.8718 34.283 77.6903 34.5624 78.5886C34.8418 79.487 34.9022 80.4391 34.7387 81.3655C34.3953 83.4811 33.3788 85.4296 31.84 86.9214C30.3012 88.4133 28.3222 89.3691 26.197 89.6468L19.6866 90.2718C17.0682 90.6043 14.6279 91.7761 12.7313 93.6117C10.8347 95.4473 9.5837 97.8479 9.16576 100.454C8.96623 101.589 9.04109 102.756 9.38408 103.856C9.72707 104.956 10.3282 105.958 11.1374 106.779C11.9466 107.6 12.9403 108.215 14.0357 108.573C15.131 108.932 16.2962 109.023 17.434 108.839L270.689 84.9723C273.308 84.6398 275.748 83.468 277.645 81.6324C279.541 79.7968 280.792 77.3962 281.21 74.79C281.407 73.6554 281.33 72.4903 280.985 71.3914C280.641 70.2926 280.04 69.2916 279.232 68.4717C278.423 67.6517 277.431 67.0365 276.337 66.677C275.243 66.3175 274.079 66.2241 272.942 66.4046L264.7 67.1989C263.772 67.3428 262.824 67.2639 261.933 66.9687C261.042 66.6735 260.235 66.1705 259.577 65.5012C258.919 64.8319 258.43 64.0156 258.15 63.1199C257.87 62.2241 257.808 61.2746 257.968 60.3499C258.308 58.2204 259.33 56.2586 260.879 54.7585C262.428 53.2585 264.422 52.301 266.562 52.0296L290.142 49.777C292.749 49.4314 295.175 48.2538 297.058 46.4193C298.942 44.5848 300.184 42.1913 300.598 39.5947Z" fill="white"/>
</svg>
