<svg width="25" height="24" viewBox="0 0 25 24" fill="none" xmlns="http://www.w3.org/2000/svg">
<path d="M20.0527 7H16.0633V5L14.0686 3H10.0792L8.08447 5V7H4.09505C2.99796 7 2.10034 7.9 2.10034 9V14C2.10034 14.75 2.49928 15.38 3.0977 15.73V19C3.0977 20.11 3.98534 21 5.09241 21H19.0554C20.1624 21 21.0501 20.11 21.0501 19V15.72C21.6385 15.37 22.0474 14.73 22.0474 14V9C22.0474 7.9 21.1498 7 20.0527 7ZM10.0792 5H14.0686V7H10.0792V5ZM4.09505 9H20.0527V14H15.066V11H9.08183V14H4.09505V9ZM13.0712 15H11.0765V13H13.0712V15ZM19.0554 19H5.09241V16H9.08183V17H15.066V16H19.0554V19Z" fill="#323232"/>
</svg>
