<svg width="25" height="24" viewBox="0 0 25 24" fill="none" xmlns="http://www.w3.org/2000/svg">
<rect width="23.9365" height="24" transform="translate(0.105835)" fill="white"/>
<path d="M6.62854 5C6.68838 5.89 6.83798 6.76 7.07735 7.59L5.88052 8.79C5.47161 7.59 5.21229 6.32 5.12253 5H6.62854V5ZM16.4625 17.02C17.3102 17.26 18.1779 17.41 19.0556 17.47V18.96C17.7391 18.87 16.4724 18.61 15.2656 18.21L16.4625 17.02V17.02ZM7.586 3H4.09526C3.54671 3 3.0979 3.45 3.0979 4C3.0979 13.39 10.6878 21 20.0529 21C20.6015 21 21.0503 20.55 21.0503 20V16.51C21.0503 15.96 20.6015 15.51 20.0529 15.51C18.8162 15.51 17.6094 15.31 16.4924 14.94C16.3926 14.9 16.2829 14.89 16.1832 14.89C15.9239 14.89 15.6745 14.99 15.4751 15.18L13.2809 17.38C10.4584 15.93 8.14452 13.62 6.70833 10.79L8.90251 8.59C9.18177 8.31 9.26155 7.92 9.15185 7.57C8.78282 6.45 8.58335 5.25 8.58335 4C8.58335 3.45 8.13454 3 7.586 3Z" fill="#323232"/>
</svg>
