<?xml version="1.0" standalone="no"?>
<!DOCTYPE svg PUBLIC "-//W3C//DTD SVG 20010904//EN"
 "http://www.w3.org/TR/2001/REC-SVG-20010904/DTD/svg10.dtd">
<svg version="1.0" xmlns="http://www.w3.org/2000/svg"
 width="512.000000pt" height="512.000000pt" viewBox="0 0 512.000000 512.000000"
 preserveAspectRatio="xMidYMid meet">

<g transform="translate(0.000000,512.000000) scale(0.100000,-0.100000)"
fill="#FFFFFF" stroke="none">
<path d="M1879 5102 c-208 -55 -359 -251 -359 -467 0 -129 49 -246 144 -341
193 -192 489 -192 682 0 190 190 191 487 1 680 -124 126 -295 173 -468 128z
m254 -665 c36 -10 92 -17 124 -17 55 -1 57 -2 38 -16 -41 -33 -128 -66 -185
-71 -100 -9 -174 41 -226 152 -13 28 -24 55 -24 61 0 6 47 -12 104 -41 56 -28
133 -59 169 -68z"/>
<path d="M1429 4097 c-126 -46 -229 -142 -293 -271 -74 -151 -154 -469 -177
-701 -13 -129 -7 -378 12 -528 24 -197 92 -310 226 -382 l56 -30 78 -330 c43
-181 78 -352 79 -380 0 -27 -21 -316 -46 -640 -50 -644 -50 -633 5 -715 78
-116 230 -152 354 -82 57 32 110 99 126 160 5 21 32 330 60 687 l51 650 -106
450 c-72 310 -110 454 -122 463 -9 6 -78 44 -154 83 -145 75 -176 101 -202
171 -15 41 -86 835 -86 955 1 122 96 213 222 213 91 -1 169 -53 203 -135 7
-16 23 -149 35 -295 11 -146 22 -269 23 -274 2 -4 27 114 56 264 47 238 53
282 48 353 -9 142 -74 259 -171 309 -64 34 -191 36 -277 5z"/>
<path d="M3327 4009 c-182 -20 -335 -154 -382 -334 -80 -308 193 -608 506
-555 223 38 379 221 379 446 0 270 -231 473 -503 443z"/>
<path d="M1420 3798 c-51 -35 -73 -71 -77 -130 -3 -29 12 -249 32 -488 39
-469 45 -498 101 -537 16 -11 239 -129 496 -262 436 -226 472 -243 519 -243
38 1 61 8 91 27 34 23 50 46 103 160 35 73 67 148 70 167 21 113 -84 214 -203
194 -56 -9 -87 -37 -138 -122 -9 -16 -39 -3 -335 151 -178 92 -326 172 -329
176 -3 4 -18 165 -34 356 -36 446 -38 466 -71 509 -35 46 -74 64 -138 64 -40
0 -63 -6 -87 -22z"/>
<path d="M2515 3133 c23 -57 43 -53 -269 -53 -279 0 -286 0 -286 -20 0 -20 7
-20 286 -20 269 0 286 -1 279 -17 -22 -54 -21 -56 21 -38 22 9 67 28 102 42
34 14 64 29 67 33 4 7 -182 90 -200 90 -4 0 -4 -8 0 -17z"/>
<path d="M3028 3031 c-121 -39 -215 -123 -274 -246 -19 -38 -34 -74 -34 -80 0
-6 13 -24 30 -40 38 -37 64 -114 57 -170 -4 -23 -33 -99 -66 -168 l-59 -126 9
-73 c20 -159 83 -398 131 -492 47 -92 141 -163 240 -181 38 -7 90 -57 440
-420 l96 -100 71 -375 c39 -206 78 -393 86 -416 18 -48 68 -102 112 -120 48
-20 137 -18 182 5 70 36 121 115 121 189 0 35 -159 863 -174 902 -8 22 -101
128 -252 286 l-239 251 -194 74 c-215 81 -246 98 -272 149 -20 39 -139 690
-139 759 0 93 80 171 175 171 63 0 128 -37 154 -88 11 -22 40 -155 71 -327 28
-160 54 -293 58 -296 4 -4 18 -10 31 -14 l24 -7 -8 73 c-4 41 -10 211 -14 379
-7 305 -7 305 -33 356 -39 75 -76 114 -133 140 -60 29 -118 30 -197 5z"/>
<path d="M3009 2743 c-37 -22 -59 -64 -59 -110 0 -61 117 -699 134 -732 9 -17
26 -35 37 -42 49 -26 684 -259 706 -259 35 0 89 28 106 54 36 54 27 127 -22
170 -11 11 -150 68 -307 127 -157 59 -288 110 -291 113 -3 3 -30 139 -59 302
-29 164 -58 310 -65 327 -25 60 -121 87 -180 50z"/>
<path d="M3038 1394 c6 -11 67 -111 136 -222 l127 -204 -102 -356 c-107 -375
-115 -420 -84 -487 34 -70 119 -125 195 -125 56 0 106 23 151 69 44 46 47 52
104 254 l59 207 -36 192 -37 191 -93 96 c-264 275 -384 392 -406 398 -21 5
-23 3 -14 -13z"/>
</g>
</svg>
