<svg width="24" height="24" viewBox="0 0 24 24" fill="none" xmlns="http://www.w3.org/2000/svg">
<g opacity="0.8">
<path d="M12.1477 17.1C10.0932 17.1 9.28534 16.18 9.17563 15H6.98145C7.10113 17.19 8.73679 18.42 10.6517 18.83V21H13.6438V18.85C15.5886 18.48 17.1345 17.35 17.1345 15.3C17.1345 12.46 14.7109 11.49 12.447 10.9C10.183 10.31 9.45489 9.7 9.45489 8.75C9.45489 7.66 10.4622 6.9 12.1477 6.9C13.923 6.9 14.5813 7.75 14.6411 9H16.8453C16.7755 7.28 15.7283 5.7 13.6438 5.19V3H10.6517V5.16C8.71684 5.58 7.16097 6.84 7.16097 8.77C7.16097 11.08 9.06592 12.23 11.8485 12.9C14.3419 13.5 14.8406 14.38 14.8406 15.31C14.8406 16 14.3519 17.1 12.1477 17.1V17.1Z" fill="#323232"/>
</g>
</svg>
