<?xml version="1.0" standalone="no"?>
<!DOCTYPE svg PUBLIC "-//W3C//DTD SVG 20010904//EN" "http://www.w3.org/TR/2001/REC-SVG-20010904/DTD/svg10.dtd">
<svg version="1.0" xmlns="http://www.w3.org/2000/svg"
    width="512.000000pt" height="512.000000pt" viewBox="0 0 512.000000 512.000000"
    preserveAspectRatio="xMidYMid meet">

    <g transform="translate(0.000000,512.000000) scale(0.100000,-0.100000)"
        fill="#FFFFFF" stroke="none">
        <path
            d="M2515 4821 c-59 -15 -106 -44 -149 -92 -52 -57 -76 -121 -76 -198 l0
-56 -812 -400 -811 -400 -226 -5 c-201 -5 -231 -7 -271 -26 -65 -30 -107 -69
-138 -128 l-27 -51 -3 -1464 c-3 -1669 -9 -1535 82 -1626 92 -92 -64 -85 1793
-85 l1634 0 24 25 c30 30 32 64 4 99 l-20 26 -1632 0 c-1534 0 -1634 1 -1667
18 -20 10 -42 32 -52 52 -17 33 -18 124 -18 1468 0 1612 -6 1487 74 1523 39
18 102 19 1503 19 l1462 0 20 26 c12 15 21 33 21 40 0 22 -22 63 -39 71 -9 4
-503 10 -1099 13 l-1083 5 674 333 674 334 46 -35 c59 -45 107 -61 183 -60 68
1 143 28 186 70 l28 27 302 -149 c167 -82 473 -233 681 -337 l378 -187 -371
-3 -372 -3 -19 -24 c-26 -32 -24 -73 4 -99 l23 -22 715 0 c673 0 716 -1 755
-19 80 -36 74 89 74 -1523 0 -1344 -1 -1435 -18 -1468 -35 -71 -21 -70 -640
-70 l-553 0 -24 -25 c-32 -31 -32 -69 0 -100 l24 -25 559 0 c649 0 631 -2 718
85 91 91 85 -43 82 1626 l-3 1464 -27 50 c-33 63 -70 98 -133 127 -46 21 -67
23 -251 26 l-201 4 -814 402 -814 402 -6 75 c-9 117 -69 208 -167 251 -49 22
-141 31 -187 19z m141 -166 c87 -57 83 -194 -7 -241 -101 -52 -221 29 -206
139 14 103 128 158 213 102z" />
        <path
            d="M344 3358 c-12 -5 -27 -21 -33 -34 -8 -18 -11 -398 -11 -1353 0
-1293 1 -1329 19 -1352 l19 -24 2222 0 2222 0 19 24 c18 23 19 59 19 1352 0
966 -3 1335 -11 1353 -7 13 -23 30 -38 35 -18 8 -471 10 -1534 9 l-1509 -3
-19 -24 c-22 -28 -25 -69 -5 -97 14 -19 44 -19 1488 -24 l1473 -5 3 -1238 2
-1237 -2110 0 -2110 0 2 1238 3 1237 521 3 c481 2 522 4 537 20 29 32 31 67 4
98 l-25 29 -564 2 c-376 1 -570 -2 -584 -9z" />
        <path
            d="M909 2491 l-24 -19 0 -435 c0 -414 1 -436 19 -456 18 -20 29 -21 217
-21 l198 0 20 26 c24 30 26 43 10 77 -18 39 -50 47 -184 47 l-125 0 0 125 0
125 135 0 c131 0 137 1 160 25 32 31 32 69 0 100 -23 24 -29 25 -160 25 l-135
0 0 124 0 124 140 4 c152 3 164 8 176 63 4 22 0 38 -16 58 l-21 27 -194 0
c-175 0 -195 -2 -216 -19z" />
        <path
            d="M1475 2485 c-14 -13 -25 -31 -25 -39 0 -28 222 -811 236 -830 57 -81
199 -72 239 16 20 45 225 783 225 812 0 58 -91 88 -127 42 -10 -13 -62 -181
-117 -380 -55 -196 -103 -353 -107 -349 -4 4 -51 166 -104 358 -67 241 -103
357 -118 373 -27 30 -71 29 -102 -3z" />
        <path
            d="M2290 2490 c-19 -19 -20 -33 -20 -455 0 -422 1 -436 20 -455 19 -19
33 -20 213 -20 189 0 194 1 215 23 36 38 28 88 -19 112 -20 11 -63 15 -154 15
l-125 0 0 125 0 125 135 0 c131 0 137 1 160 25 32 31 32 69 0 100 -23 24 -29
25 -160 25 l-135 0 0 125 0 125 135 0 c131 0 137 1 160 25 30 30 32 64 4 99
l-20 26 -195 0 c-181 0 -195 -1 -214 -20z" />
        <path
            d="M2922 2487 c-22 -23 -22 -26 -22 -455 0 -419 1 -433 20 -452 27 -27
81 -26 106 1 17 19 19 44 24 289 l5 268 153 -273 c84 -150 161 -280 171 -289
25 -23 76 -20 101 6 19 21 20 33 20 453 l0 432 -23 21 c-30 28 -78 29 -103 1
-17 -19 -19 -44 -24 -291 l-5 -270 -150 269 c-82 147 -160 278 -172 290 -29
30 -73 30 -101 0z" />
        <path
            d="M3632 2487 c-31 -33 -29 -80 4 -106 23 -18 41 -21 130 -21 l104 0 0
-380 c0 -367 1 -381 20 -400 30 -30 83 -27 109 6 20 26 21 37 21 400 l0 374
104 0 c117 0 141 11 152 67 5 26 1 37 -19 57 l-26 26 -289 0 -289 0 -21 -23z" />
    </g>
</svg>