<?xml version="1.0" standalone="no"?>
<!DOCTYPE svg PUBLIC "-//W3C//DTD SVG 20010904//EN"
 "http://www.w3.org/TR/2001/REC-SVG-20010904/DTD/svg10.dtd">
<svg version="1.0" xmlns="http://www.w3.org/2000/svg"
 width="512.000000pt" height="512.000000pt" viewBox="0 0 512.000000 512.000000"
 preserveAspectRatio="xMidYMid meet">

<g transform="translate(0.000000,512.000000) scale(0.100000,-0.100000)"
fill="#FFFFFF" stroke="none">
<path d="M1002 4829 c-503 -66 -905 -457 -987 -959 -12 -78 -15 -207 -15 -727
0 -395 4 -660 11 -709 67 -486 443 -881 927 -975 l62 -12 0 -524 c0 -521 0
-526 22 -564 23 -41 84 -79 126 -79 62 0 101 35 662 595 l565 565 846 0 c705
0 861 2 932 15 496 86 872 464 952 955 22 137 22 1307 0 1453 -36 241 -148
461 -325 638 -158 158 -332 255 -560 312 -84 21 -94 21 -1620 23 -844 1 -1563
-2 -1598 -7z m3113 -304 c328 -57 581 -290 677 -622 23 -78 23 -81 23 -768 l0
-690 -28 -88 c-101 -323 -340 -539 -665 -603 -61 -11 -231 -14 -958 -14 -790
0 -888 -2 -917 -16 -18 -9 -238 -221 -489 -472 l-458 -457 0 414 c0 406 0 414
-22 452 -28 49 -86 79 -155 79 -112 0 -268 43 -382 106 -231 127 -393 361
-431 622 -8 52 -10 284 -8 722 l3 645 28 88 c15 49 39 112 54 140 121 240 352
414 610 461 122 22 2992 23 3118 1z"/>
<path d="M2403 3839 c-59 -8 -108 -32 -134 -69 -22 -31 -389 -1234 -389 -1277
0 -62 130 -134 218 -119 57 9 76 38 113 179 l33 127 212 0 211 0 34 -127 c44
-163 55 -178 141 -178 77 1 156 39 183 89 16 31 16 33 -175 656 -105 344 -199
636 -209 650 -40 55 -133 82 -238 69z m122 -639 c36 -135 68 -253 71 -262 5
-17 -6 -18 -141 -18 -114 0 -146 3 -143 13 3 6 36 126 73 265 37 139 69 251
71 250 1 -2 32 -113 69 -248z"/>
<path d="M1053 3815 c-17 -7 -36 -22 -42 -34 -8 -13 -11 -228 -11 -685 l0
-665 26 -20 c74 -58 220 -48 271 18 9 12 12 89 13 284 l0 267 155 0 c208 0
235 15 235 130 0 38 -6 55 -26 79 l-26 31 -169 0 -169 0 0 170 0 170 268 0
c297 0 301 1 328 66 28 67 9 170 -34 193 -33 18 -778 14 -819 -4z"/>
<path d="M3558 3814 c-156 -37 -262 -143 -303 -301 -22 -85 -22 -753 0 -838
42 -159 152 -263 313 -296 l62 -13 0 -68 c0 -85 17 -122 64 -138 27 -9 41 -8
69 3 47 20 51 30 57 121 l5 80 58 13 c181 41 298 163 326 343 17 102 14 691
-3 771 -37 174 -143 283 -317 324 -80 18 -254 18 -331 -1z m259 -273 c30 -14
48 -32 65 -63 22 -42 23 -52 26 -346 2 -200 -1 -321 -8 -357 -11 -51 -50 -115
-71 -115 -5 0 -9 27 -9 60 0 79 -26 110 -94 110 -37 0 -48 -5 -70 -31 -21 -25
-26 -41 -26 -85 0 -58 -7 -65 -34 -35 -41 45 -45 83 -46 419 0 340 3 365 48
416 42 47 145 60 219 27z"/>
</g>
</svg>
