<svg width="25" height="24" viewBox="0 0 25 24" fill="none" xmlns="http://www.w3.org/2000/svg">
<path d="M3.99532 12C3.99532 10.29 5.38164 8.9 7.08712 8.9H11.0765V7H7.08712C4.33442 7 2.10034 9.24 2.10034 12C2.10034 14.76 4.33442 17 7.08712 17H11.0765V15.1H7.08712C5.38164 15.1 3.99532 13.71 3.99532 12ZM8.08447 13H16.0633V11H8.08447V13ZM17.0607 7H13.0712V8.9H17.0607C18.7661 8.9 20.1525 10.29 20.1525 12C20.1525 13.71 18.7661 15.1 17.0607 15.1H13.0712V17H17.0607C19.8134 17 22.0474 14.76 22.0474 12C22.0474 9.24 19.8134 7 17.0607 7Z" fill="#323232"/>
</svg>
