<svg width="24" height="24" viewBox="0 0 24 24" fill="none" xmlns="http://www.w3.org/2000/svg">
<path d="M13.5 4C13.7761 4 14 4.22386 14 4.5V9C14 9.76538 14.1728 10.4934 14.4833 11.1458C14.6603 11.5178 14.412 12 14 12H10.0047C9.59178 12 9.34342 11.5157 9.52081 11.1429C9.83487 10.4828 10 9.75556 10 9V4.5C10 4.22386 10.2239 4 10.5 4H13.5ZM17 2H7C6.45 2 6 2.45 6 3C6 3.55 6.45 4 7 4H7.5C7.77614 4 8 4.22386 8 4.5V9C8 10.4903 6.91995 11.7227 5.49793 11.9591C5.22553 12.0044 5 12.2239 5 12.5V13.5C5 13.7761 5.22386 14 5.5 14H10.47C10.7461 14 10.97 14.2239 10.97 14.5V20.7929C10.97 20.9255 11.0227 21.0527 11.1164 21.1464L11.6164 21.6464C11.8117 21.8417 12.1283 21.8417 12.3236 21.6464L12.8236 21.1464C12.9173 21.0527 12.97 20.9255 12.97 20.7929V14.5C12.97 14.2239 13.1939 14 13.47 14H18.5C18.7761 14 19 13.7761 19 13.5V12.5C19 12.2239 18.7745 12.0044 18.5021 11.9591C17.0801 11.7227 16 10.4903 16 9V4.5C16 4.22386 16.2239 4 16.5 4H17C17.55 4 18 3.55 18 3C18 2.45 17.55 2 17 2Z" fill="url(#paint0_linear_203_7372)"/>
<defs>
<linearGradient id="paint0_linear_203_7372" x1="22.365" y1="4.85712" x2="1.94732" y2="5.01582" gradientUnits="userSpaceOnUse">
<stop stop-color="#ED2A3A"/>
<stop offset="1" stop-color="#F7983B"/>
</linearGradient>
</defs>
</svg>
