<svg width="24" height="24" viewBox="0 0 24 24" fill="none" xmlns="http://www.w3.org/2000/svg">
<g opacity="0.8">
<path d="M8.66795 9.85714C7.95367 9.85714 7.52896 9.32381 7.52896 8.37143C7.52896 7.47619 7.95367 6.94286 8.66795 6.94286C9.38224 6.94286 9.76834 7.49524 9.76834 8.39048C9.76834 9.28571 9.38224 9.85714 8.66795 9.85714ZM8.64865 11.8381C10.888 11.8381 12.3166 10.3143 12.3166 8.33333C12.3166 6.39048 10.7336 5 8.66795 5C6.56371 5 5 6.46667 5 8.39048C5 10.3524 6.37066 11.8381 8.64865 11.8381ZM6.79537 18.7714H8.68726L18.2625 5.15238H16.3707L6.79537 18.7714ZM16.3514 17C15.6564 17 15.2317 16.4857 15.2317 15.5333C15.2317 14.6381 15.6564 14.1048 16.3514 14.1048C17.0849 14.1048 17.471 14.6571 17.471 15.5333C17.471 16.4476 17.0849 17 16.3514 17ZM16.332 19C18.5714 19 20 17.4762 20 15.4952C20 13.5333 18.4363 12.1619 16.3514 12.1619C14.2664 12.1619 12.6834 13.6095 12.6834 15.5524C12.6834 17.5143 14.0541 19 16.332 19Z" fill="black"/>
</g>
</svg>
