<svg width="24" height="24" viewBox="0 0 24 24" fill="none" xmlns="http://www.w3.org/2000/svg">
<path d="M15.5 11C16.3284 11 17 10.3284 17 9.5C17 8.67157 16.3284 8 15.5 8C14.6716 8 14 8.67157 14 9.5C14 10.3284 14.6716 11 15.5 11Z" fill="url(#paint0_linear_118_6825)"/>
<path d="M8.5 11C9.32843 11 10 10.3284 10 9.5C10 8.67157 9.32843 8 8.5 8C7.67157 8 7 8.67157 7 9.5C7 10.3284 7.67157 11 8.5 11Z" fill="url(#paint1_linear_118_6825)"/>
<path d="M12 16C10.52 16 9.25 15.19 8.55 14H6.88C7.68 16.05 9.67 17.5 12 17.5C14.33 17.5 16.32 16.05 17.12 14H15.45C14.75 15.19 13.48 16 12 16ZM11.99 2C6.47 2 2 6.48 2 12C2 17.52 6.47 22 11.99 22C17.52 22 22 17.52 22 12C22 6.48 17.52 2 11.99 2ZM12 20C7.58 20 4 16.42 4 12C4 7.58 7.58 4 12 4C16.42 4 20 7.58 20 12C20 16.42 16.42 20 12 20Z" fill="url(#paint2_linear_118_6825)"/>
<defs>
<linearGradient id="paint0_linear_118_6825" x1="17.7211" y1="8.42857" x2="13.3461" y2="8.47714" gradientUnits="userSpaceOnUse">
<stop stop-color="#ED2A3A"/>
<stop offset="1" stop-color="#F7983B"/>
</linearGradient>
<linearGradient id="paint1_linear_118_6825" x1="10.7211" y1="8.42857" x2="6.34613" y2="8.47714" gradientUnits="userSpaceOnUse">
<stop stop-color="#ED2A3A"/>
<stop offset="1" stop-color="#F7983B"/>
</linearGradient>
<linearGradient id="paint2_linear_118_6825" x1="26.8072" y1="4.85712" x2="-2.35913" y2="5.18096" gradientUnits="userSpaceOnUse">
<stop stop-color="#ED2A3A"/>
<stop offset="1" stop-color="#F7983B"/>
</linearGradient>
</defs>
</svg>
