<?xml version="1.0" standalone="no"?>
<!DOCTYPE svg PUBLIC "-//W3C//DTD SVG 20010904//EN"
 "http://www.w3.org/TR/2001/REC-SVG-20010904/DTD/svg10.dtd">
<svg version="1.0" xmlns="http://www.w3.org/2000/svg"
 width="512.000000pt" height="512.000000pt" viewBox="0 0 512.000000 512.000000"
 preserveAspectRatio="xMidYMid meet">

<g transform="translate(0.000000,512.000000) scale(0.100000,-0.100000)"
fill="#ffffff" stroke="none">
<path d="M2787 4899 c-129 -18 -265 -117 -325 -238 -136 -273 28 -593 333
-643 233 -39 471 137 504 373 41 303 -208 550 -512 508z m188 -183 c65 -30
112 -78 143 -144 20 -45 23 -65 20 -125 -5 -85 -26 -135 -81 -190 -84 -84
-213 -106 -319 -54 -104 51 -162 144 -161 257 0 115 52 198 155 249 80 40 167
43 243 7z"/>
<path d="M3125 3926 c-57 -18 -82 -33 -132 -79 -60 -55 -74 -86 -149 -320 -35
-110 -71 -208 -80 -218 -16 -17 -35 -19 -213 -19 -221 0 -284 -11 -356 -60
-196 -135 -143 -446 88 -515 41 -12 118 -15 390 -15 l339 0 29 29 c16 16 29
37 29 46 0 29 -30 75 -53 80 -12 3 -173 6 -357 7 -366 3 -367 3 -406 63 -38
58 -9 159 53 183 16 7 119 12 243 14 201 3 218 4 262 26 62 31 102 77 129 152
12 34 25 57 29 53 12 -14 322 -604 318 -607 -1 -2 -96 -66 -209 -144 -113 -78
-223 -160 -244 -183 -52 -58 -77 -121 -83 -204 -4 -67 3 -92 136 -537 77 -257
149 -484 158 -505 30 -63 112 -137 179 -162 49 -19 75 -22 140 -19 134 7 229
68 287 185 28 57 33 77 33 142 0 68 -11 112 -100 405 -99 328 -99 329 -78 345
11 9 95 67 186 130 168 115 188 135 179 187 -5 32 -39 58 -75 58 -33 0 -115
-51 -364 -226 -80 -56 -115 -87 -119 -105 -5 -18 26 -135 99 -382 128 -429
121 -399 108 -448 -24 -87 -97 -138 -188 -131 -59 5 -96 27 -129 75 -11 17
-83 238 -159 492 -149 499 -151 507 -104 575 14 20 117 98 262 197 132 90 248
175 259 189 13 16 18 34 14 50 -3 14 -98 201 -211 415 -117 221 -209 406 -212
427 -8 57 5 105 40 145 56 64 46 63 585 63 486 0 488 0 532 -22 52 -27 56 -32
248 -383 108 -196 132 -247 132 -280 0 -78 -67 -145 -146 -145 -75 0 -98 25
-224 252 -123 221 -143 248 -205 281 -38 21 -55 22 -355 25 -173 2 -324 1
-337 -3 -57 -14 -80 -81 -44 -126 l19 -24 321 -5 c304 -5 321 -6 340 -25 11
-11 68 -107 127 -214 59 -107 120 -209 135 -226 15 -17 52 -44 81 -61 48 -26
62 -29 143 -29 78 0 97 4 140 27 105 56 165 154 165 273 0 85 -4 95 -200 449
-152 275 -183 316 -272 363 l-53 28 -530 2 c-407 2 -539 -1 -570 -11z"/>
<path d="M197 3806 c-119 -43 -197 -150 -197 -273 0 -86 34 -147 140 -251 l98
-97 416 -943 c230 -518 415 -946 412 -950 -12 -20 -146 -794 -146 -842 0 -69
25 -125 77 -171 76 -69 -72 -64 1998 -64 l1880 0 56 26 c68 32 120 83 156 152
23 44 28 64 28 132 -1 104 -27 167 -100 233 -95 87 -25 82 -1129 82 -762 0
-976 3 -996 13 -27 14 -31 19 -123 177 -81 137 -100 149 -302 190 -82 17 -280
58 -440 91 -159 32 -292 63 -296 67 -4 4 -127 279 -274 612 -173 394 -275 613
-291 628 -36 32 -77 29 -108 -9 -14 -17 -26 -37 -26 -45 0 -7 113 -268 251
-580 138 -311 249 -567 247 -569 -2 -2 -44 5 -93 16 -82 19 -188 22 -233 8 -9
-3 -113 221 -332 715 -175 395 -321 725 -325 734 -3 8 18 -6 47 -32 109 -96
82 -91 503 -91 l370 0 51 27 c203 107 203 390 0 487 -55 27 -88 33 -336 61
-151 17 -284 35 -295 39 -11 5 -116 97 -233 204 -176 162 -223 200 -268 217
-63 23 -132 25 -187 6z m140 -163 c17 -10 122 -101 233 -203 111 -102 217
-193 237 -203 34 -18 96 -27 475 -73 172 -20 201 -32 219 -95 11 -37 11 -46
-7 -78 -36 -68 -51 -71 -396 -71 -169 0 -318 4 -332 9 -33 13 -566 514 -589
554 -32 57 -5 136 56 162 43 19 66 18 104 -2z m1594 -2478 c338 -69 623 -129
635 -134 12 -5 49 -58 85 -122 73 -131 106 -172 163 -202 l41 -22 1000 -5
c764 -4 1005 -8 1021 -17 36 -20 73 -71 80 -109 10 -52 -19 -119 -64 -149
l-37 -25 -1864 0 -1865 0 -23 22 c-13 12 -23 33 -23 50 0 23 118 701 135 776
8 34 41 62 73 62 16 0 305 -56 643 -125z"/>
<path d="M3720 3227 c-31 -15 -52 -55 -45 -84 3 -12 112 -226 243 -475 260
-494 286 -533 372 -556 25 -7 158 -21 296 -31 224 -16 256 -20 287 -40 97 -60
112 -195 32 -276 -58 -57 -71 -58 -480 -30 -462 32 -431 19 -539 233 -25 50
-56 98 -68 106 -31 22 -74 20 -98 -4 -39 -39 -36 -62 25 -182 83 -163 119
-207 207 -253 61 -32 123 -40 522 -66 374 -25 399 -23 491 39 221 149 198 471
-42 589 -50 24 -74 27 -316 45 -212 15 -266 22 -285 36 -13 9 -128 216 -265
475 -266 504 -269 508 -337 474z"/>
</g>
</svg>
